<svg width="112" height="31" viewBox="0 0 112 31" fill="none" xmlns="http://www.w3.org/2000/svg">
<g filter="url(#filter0_d_255_495)">
<path d="M7.37213 22.2791C6.44189 22.2791 5.78038 22.1447 5.38762 21.876C4.99485 21.5866 4.75712 21.2248 4.67443 20.7907C4.59174 20.3359 4.5504 19.8811 4.5504 19.4263V3.3952C4.5504 2.94041 4.59174 2.49597 4.67443 2.06185C4.75712 1.62774 4.99485 1.27632 5.38762 1.00758C5.78038 0.718174 6.45222 0.57347 7.40314 0.57347C8.35405 0.57347 9.01555 0.718174 9.38765 1.00758C9.78042 1.27632 10.0181 1.62774 10.1008 2.06185C10.1835 2.49597 10.2249 2.95075 10.2249 3.42621V17.4418H17.7908C18.1836 17.4418 18.5557 17.4728 18.9071 17.5348C19.2792 17.5969 19.5789 17.8036 19.8063 18.155C20.0544 18.4858 20.1784 19.0542 20.1784 19.8604C20.1784 20.646 20.0544 21.2145 19.8063 21.5659C19.5583 21.8966 19.2482 22.093 18.8761 22.155C18.5247 22.2377 18.1526 22.2791 17.7598 22.2791H7.37213ZM33.5223 22.6202C32.0132 22.6202 30.5972 22.3411 29.2742 21.7829C27.9719 21.2041 26.8246 20.4083 25.8323 19.3953C24.84 18.3824 24.0545 17.2144 23.4757 15.8914C22.9176 14.5477 22.6385 13.1214 22.6385 11.6123C22.6385 10.0412 22.9072 8.57353 23.4447 7.20918C24.0028 5.84483 24.7677 4.64585 25.7393 3.61225C26.7109 2.57865 27.8375 1.77245 29.1192 1.19363C30.4215 0.614814 31.8065 0.325405 33.2742 0.325405C34.7833 0.325405 36.189 0.614814 37.4913 1.19363C38.8143 1.75177 39.972 2.53731 40.9642 3.55024C41.9565 4.56317 42.7317 5.75181 43.2898 7.11616C43.848 8.45984 44.127 9.91721 44.127 11.4883C44.127 13.018 43.848 14.4547 43.2898 15.7984C42.7523 17.1421 41.9875 18.3307 40.9952 19.3643C40.0236 20.3772 38.897 21.1731 37.6153 21.7519C36.3544 22.3308 34.99 22.6202 33.5223 22.6202ZM33.3672 16.9457C34.0701 16.9457 34.7316 16.8113 35.3518 16.5426C35.9719 16.2532 36.5094 15.8708 36.9642 15.3953C37.4396 14.8992 37.8014 14.3204 38.0495 13.6588C38.3182 12.9767 38.4526 12.2532 38.4526 11.4883C38.4526 10.7234 38.3182 10.0102 38.0495 9.34873C37.7807 8.68723 37.4086 8.10841 36.9332 7.61229C36.4784 7.09549 35.9409 6.70272 35.3208 6.43398C34.7213 6.14457 34.0804 5.99987 33.3983 5.99987C32.6954 5.99987 32.0339 6.14457 31.4137 6.43398C30.8143 6.70272 30.2768 7.09549 29.8013 7.61229C29.3465 8.10841 28.9848 8.68723 28.716 9.34873C28.4473 10.0102 28.3129 10.7234 28.3129 11.4883C28.3129 12.2325 28.4473 12.9353 28.716 13.5968C28.9848 14.2583 29.3465 14.8475 29.8013 15.3643C30.2768 15.8604 30.8143 16.2532 31.4137 16.5426C32.0339 16.8113 32.6851 16.9457 33.3672 16.9457ZM58.1024 22.5892C56.614 22.5892 55.2084 22.2894 53.8853 21.6899C52.583 21.0904 51.4254 20.2636 50.4124 19.2093C49.3995 18.155 48.6036 16.9354 48.0248 15.5503C47.4667 14.1653 47.1876 12.6873 47.1876 11.1162C47.1876 9.60713 47.477 8.20144 48.0558 6.8991C48.6347 5.5761 49.4305 4.41846 50.4435 3.42621C51.4771 2.41328 52.6657 1.62774 54.0094 1.0696C55.3531 0.490783 56.7898 0.201375 58.3195 0.201375C58.981 0.201375 59.6942 0.263391 60.459 0.387422C61.2239 0.511454 61.9681 0.707838 62.6916 0.976574C63.4358 1.22464 64.0766 1.53472 64.6141 1.90682C65.0482 2.19622 65.441 2.5063 65.7924 2.83705C66.1645 3.16781 66.3506 3.58125 66.3506 4.07737C66.3506 4.32544 66.2885 4.59417 66.1645 4.88358C66.0405 5.17299 65.8648 5.48307 65.6374 5.81382C65.2446 6.39264 64.8518 6.81641 64.4591 7.08515C64.0663 7.33321 63.6942 7.45725 63.3428 7.45725C63.1154 7.45725 62.8777 7.40557 62.6296 7.30221C62.4022 7.17817 62.0818 6.99213 61.6684 6.74406C61.5443 6.66137 61.3066 6.55801 60.9552 6.43398C60.6037 6.28928 60.18 6.16525 59.6838 6.06189C59.2084 5.93785 58.7019 5.87584 58.1644 5.87584C57.1929 5.87584 56.304 6.11357 55.4978 6.58902C54.6915 7.04381 54.0507 7.6743 53.5753 8.48051C53.0998 9.28672 52.8621 10.186 52.8621 11.1782C52.8621 12.1911 53.1101 13.1317 53.6063 13.9999C54.1024 14.8475 54.7536 15.54 55.5598 16.0775C56.3867 16.5943 57.2756 16.8527 58.2265 16.8527C58.5986 16.8527 58.9603 16.8423 59.3117 16.8217C59.6838 16.801 60.0456 16.7596 60.397 16.6976C60.7484 16.6356 61.0585 16.5529 61.3273 16.4496V13.7829H59.0327C58.6606 13.7829 58.3092 13.7519 57.9784 13.6899C57.6476 13.6072 57.3789 13.4004 57.1722 13.0697C56.9655 12.7389 56.8621 12.1705 56.8621 11.3643C56.8621 10.558 56.9758 9.98957 57.2032 9.65881C57.4306 9.32806 57.72 9.13168 58.0714 9.06966C58.4228 9.00765 58.7743 8.97664 59.1257 8.97664H64.5521C65.379 8.99731 65.9578 9.15235 66.2885 9.44176C66.6193 9.71049 66.8157 10.0412 66.8777 10.434C66.9604 10.8268 67.0017 11.2402 67.0017 11.6743V18.031C67.0017 18.6098 66.7537 19.2093 66.2575 19.8294C65.7614 20.4289 65.0896 20.9457 64.242 21.3798C63.7252 21.6486 63.1464 21.8656 62.5056 22.031C61.8647 22.2171 61.1722 22.3514 60.428 22.4341C59.7045 22.5375 58.9293 22.5892 58.1024 22.5892ZM82.4779 22.2791C81.5476 22.2791 80.8861 22.1447 80.4934 21.876C80.1006 21.5866 79.8629 21.2248 79.7802 20.7907C79.6975 20.3359 79.6561 19.8811 79.6561 19.4263V3.3952C79.6561 2.94041 79.6975 2.49597 79.7802 2.06185C79.8629 1.62774 80.1006 1.27632 80.4934 1.00758C80.8861 0.718174 81.558 0.57347 82.5089 0.57347C83.4598 0.57347 84.1213 0.718174 84.4934 1.00758C84.8862 1.27632 85.1239 1.62774 85.2066 2.06185C85.2893 2.49597 85.3306 2.95075 85.3306 3.42621V19.4573C85.3306 19.9121 85.2893 20.3566 85.2066 20.7907C85.1239 21.2248 84.8862 21.5866 84.4934 21.876C84.1006 22.1447 83.4288 22.2791 82.4779 22.2791ZM91.4162 22.2791C90.5066 22.2791 89.8554 22.1447 89.4627 21.876C89.0699 21.5866 88.8322 21.2248 88.7495 20.7907C88.6668 20.3566 88.6254 19.9018 88.6254 19.4263V3.33318C88.6254 2.8784 88.6668 2.44429 88.7495 2.03085C88.8322 1.61741 89.0699 1.27632 89.4627 1.00758C89.8761 0.738845 90.5479 0.604477 91.4782 0.604477C92.3877 0.604477 93.0079 0.718174 93.3387 0.945566C93.6694 1.17296 93.9692 1.46237 94.2379 1.81379L101.99 12.2325V3.33318C101.99 2.8784 102.031 2.44429 102.114 2.03085C102.217 1.61741 102.465 1.27632 102.858 1.00758C103.251 0.738845 103.912 0.604477 104.843 0.604477C105.794 0.604477 106.455 0.749181 106.827 1.03859C107.22 1.30733 107.458 1.65875 107.54 2.09286C107.623 2.52697 107.664 2.98176 107.664 3.45721V19.4573C107.664 19.9121 107.623 20.3566 107.54 20.7907C107.458 21.2248 107.22 21.5866 106.827 21.876C106.434 22.1447 105.763 22.2791 104.812 22.2791C104.109 22.2791 103.571 22.2171 103.199 22.093C102.848 21.9897 102.548 21.7726 102.3 21.4419L94.2689 10.8371V19.4573C94.2689 19.9121 94.2276 20.3566 94.1449 20.7907C94.0622 21.2248 93.8244 21.5866 93.4317 21.876C93.0389 22.1447 92.3671 22.2791 91.4162 22.2791Z" fill="#2A4263"/>
</g>
<defs>
<filter id="filter0_d_255_495" x="0.550293" y="0.201172" width="111.114" height="30.4189" filterUnits="userSpaceOnUse" color-interpolation-filters="sRGB">
<feFlood flood-opacity="0" result="BackgroundImageFix"/>
<feColorMatrix in="SourceAlpha" type="matrix" values="0 0 0 0 0 0 0 0 0 0 0 0 0 0 0 0 0 0 127 0" result="hardAlpha"/>
<feOffset dy="4"/>
<feGaussianBlur stdDeviation="2"/>
<feComposite in2="hardAlpha" operator="out"/>
<feColorMatrix type="matrix" values="0 0 0 0 0 0 0 0 0 0 0 0 0 0 0 0 0 0 0.25 0"/>
<feBlend mode="normal" in2="BackgroundImageFix" result="effect1_dropShadow_255_495"/>
<feBlend mode="normal" in="SourceGraphic" in2="effect1_dropShadow_255_495" result="shape"/>
</filter>
</defs>
</svg>
