<svg width="150" height="23" viewBox="0 0 150 23" fill="none" xmlns="http://www.w3.org/2000/svg">
<path d="M2.90701 22.2481C1.97677 22.2481 1.31526 22.1137 0.922496 21.845C0.529728 21.5556 0.292 21.1938 0.209312 20.7597C0.126624 20.3049 0.0852801 19.8501 0.0852801 19.3953V3.3952C0.0852801 2.94041 0.126624 2.49597 0.209312 2.06185C0.292 1.62774 0.529728 1.27632 0.922496 1.00758C1.31526 0.718174 1.9871 0.57347 2.93802 0.57347H9.17062C9.95616 0.57347 10.8037 0.738846 11.7133 1.0696C12.6228 1.37968 13.4807 1.86547 14.2869 2.52697C15.0932 3.18848 15.7547 4.01536 16.2715 5.00761C16.7883 5.99987 17.0467 7.17818 17.0467 8.54253C17.0467 9.49344 16.902 10.3823 16.6125 11.2092C16.3438 12.0361 15.9304 12.7906 15.3722 13.4728C14.8348 14.1343 14.1732 14.7235 13.3877 15.2403C12.6228 15.7364 11.7443 16.1292 10.752 16.4186H5.75974V19.4263C5.75974 19.8811 5.7184 20.3256 5.63571 20.7597C5.55302 21.1938 5.3153 21.5556 4.92253 21.845C4.52976 22.1137 3.85792 22.2481 2.90701 22.2481ZM15.8994 21.5039C14.9691 22.2067 14.2353 22.4858 13.6978 22.3411C13.1603 22.2171 12.5815 21.7416 11.9613 20.9147L6.25587 13.1627L12.7055 12.3565L16.5505 17.5348C16.964 18.1343 17.2224 18.6408 17.3257 19.0542C17.4498 19.4677 17.3981 19.8604 17.1707 20.2325C16.9433 20.6046 16.5195 21.0284 15.8994 21.5039ZM5.75974 10.7751H9.17062C9.35667 10.7751 9.57373 10.7441 9.82179 10.6821C10.0905 10.5994 10.3386 10.4754 10.566 10.31C10.7934 10.1239 10.9794 9.88621 11.1241 9.5968C11.2895 9.30739 11.3722 8.94563 11.3722 8.51152C11.3722 8.07741 11.2688 7.69497 11.0621 7.36422C10.8554 7.0128 10.5763 6.74406 10.2249 6.55801C9.89414 6.35129 9.52205 6.24793 9.10861 6.24793H5.75974V10.7751ZM23.2642 22.2791C22.334 22.2791 21.6725 22.1447 21.2797 21.876C20.887 21.5866 20.6492 21.2248 20.5665 20.7907C20.4839 20.3359 20.4425 19.8811 20.4425 19.4263V3.3952C20.4425 2.32025 20.6492 1.5864 21.0627 1.19363C21.4968 0.78019 22.2617 0.57347 23.3573 0.57347H34.7062C35.1817 0.57347 35.6261 0.614814 36.0395 0.697502C36.4737 0.78019 36.8251 1.01792 37.0938 1.41069C37.3832 1.80345 37.5279 2.47529 37.5279 3.42621C37.5279 4.35645 37.3832 5.01795 37.0938 5.41072C36.8251 5.80349 36.4737 6.04121 36.0395 6.1239C35.6054 6.20659 35.1506 6.24793 34.6752 6.24793H26.117V9.00765H31.8535C32.3289 9.00765 32.7527 9.04899 33.1248 9.13168C33.4969 9.19369 33.7966 9.39008 34.024 9.72083C34.2514 10.0516 34.3651 10.6304 34.3651 11.4573C34.3651 12.2428 34.2514 12.8113 34.024 13.1627C33.7966 13.4935 33.4866 13.6899 33.0938 13.7519C32.701 13.8139 32.2669 13.8449 31.7914 13.8449H26.117V16.6046H34.7062C35.1817 16.6046 35.6261 16.646 36.0395 16.7286C36.4737 16.8113 36.8251 17.0491 37.0938 17.4418C37.3832 17.8346 37.5279 18.5064 37.5279 19.4573C37.5279 20.3876 37.3832 21.0491 37.0938 21.4419C36.8251 21.8346 36.4737 22.0724 36.0395 22.155C35.6054 22.2377 35.1506 22.2791 34.6752 22.2791H23.2642ZM51.4982 22.5892C50.0099 22.5892 48.6042 22.2894 47.2812 21.6899C45.9788 21.0904 44.8212 20.2636 43.8083 19.2093C42.7953 18.155 41.9995 16.9354 41.4206 15.5503C40.8625 14.1653 40.5834 12.6873 40.5834 11.1162C40.5834 9.60713 40.8728 8.20144 41.4517 6.8991C42.0305 5.5761 42.8263 4.41846 43.8393 3.42621C44.8729 2.41328 46.0615 1.62774 47.4052 1.0696C48.7489 0.490783 50.1856 0.201375 51.7153 0.201375C52.3768 0.201375 53.09 0.263391 53.8549 0.387422C54.6197 0.511454 55.3639 0.707838 56.0874 0.976574C56.8316 1.22464 57.4725 1.53472 58.0099 1.90682C58.444 2.19622 58.8368 2.5063 59.1882 2.83705C59.5603 3.16781 59.7464 3.58125 59.7464 4.07737C59.7464 4.32544 59.6844 4.59417 59.5603 4.88358C59.4363 5.17299 59.2606 5.48307 59.0332 5.81382C58.6404 6.39264 58.2477 6.81641 57.8549 7.08515C57.4621 7.33321 57.09 7.45725 56.7386 7.45725C56.5112 7.45725 56.2735 7.40557 56.0254 7.30221C55.798 7.17817 55.4776 6.99213 55.0642 6.74406C54.9401 6.66137 54.7024 6.55801 54.351 6.43398C53.9996 6.28928 53.5758 6.16525 53.0797 6.06189C52.6042 5.93785 52.0977 5.87584 51.5603 5.87584C50.5887 5.87584 49.6998 6.11357 48.8936 6.58902C48.0874 7.04381 47.4465 7.6743 46.9711 8.48051C46.4956 9.28672 46.2579 10.186 46.2579 11.1782C46.2579 12.1911 46.506 13.1317 47.0021 13.9999C47.4982 14.8475 48.1494 15.54 48.9556 16.0775C49.7825 16.5943 50.6714 16.8527 51.6223 16.8527C51.9944 16.8527 52.3561 16.8423 52.7076 16.8217C53.0797 16.801 53.4414 16.7596 53.7928 16.6976C54.1443 16.6356 54.4543 16.5529 54.7231 16.4496V13.7829H52.4285C52.0564 13.7829 51.705 13.7519 51.3742 13.6899C51.0435 13.6072 50.7747 13.4004 50.568 13.0697C50.3613 12.7389 50.2579 12.1705 50.2579 11.3643C50.2579 10.558 50.3716 9.98957 50.599 9.65881C50.8264 9.32806 51.1158 9.13168 51.4672 9.06966C51.8187 9.00765 52.1701 8.97664 52.5215 8.97664H57.9479C58.7748 8.99731 59.3536 9.15235 59.6844 9.44176C60.0151 9.71049 60.2115 10.0412 60.2735 10.434C60.3562 10.8268 60.3975 11.2402 60.3975 11.6743V18.031C60.3975 18.6098 60.1495 19.2093 59.6533 19.8294C59.1572 20.4289 58.4854 20.9457 57.6378 21.3798C57.121 21.6486 56.5422 21.8656 55.9014 22.031C55.2605 22.2171 54.568 22.3514 53.8238 22.4341C53.1003 22.5375 52.3251 22.5892 51.4982 22.5892ZM67.0255 22.2791C66.0953 22.2791 65.4338 22.1447 65.041 21.876C64.6482 21.5866 64.4105 21.2248 64.3278 20.7907C64.2451 20.3359 64.2038 19.8811 64.2038 19.4263V3.3952C64.2038 2.94041 64.2451 2.49597 64.3278 2.06185C64.4105 1.62774 64.6482 1.27632 65.041 1.00758C65.4338 0.718174 66.1056 0.57347 67.0565 0.57347C68.0074 0.57347 68.6689 0.718174 69.041 1.00758C69.4338 1.27632 69.6715 1.62774 69.7542 2.06185C69.8369 2.49597 69.8782 2.95075 69.8782 3.42621V19.4573C69.8782 19.9121 69.8369 20.3566 69.7542 20.7907C69.6715 21.2248 69.4338 21.5866 69.041 21.876C68.6483 22.1447 67.9764 22.2791 67.0255 22.2791ZM80.708 22.5892C79.447 22.5892 78.3721 22.4341 77.4832 22.124C76.615 21.814 75.9018 21.4522 75.3436 21.0388C74.7855 20.6046 74.3617 20.2119 74.0723 19.8604C73.7829 19.509 73.6072 19.292 73.5452 19.2093C73.1317 18.6925 72.8733 18.2274 72.77 17.8139C72.6873 17.4005 72.7493 16.987 72.956 16.5736C73.1834 16.1602 73.5555 15.7054 74.0723 15.2092C74.5478 14.7545 75.0129 14.5064 75.4677 14.4651C75.9225 14.403 76.3669 14.4961 76.801 14.7441C77.2558 14.9922 77.6899 15.354 78.1034 15.8294C78.5995 16.3876 79.0233 16.77 79.3747 16.9767C79.7261 17.1628 80.1292 17.2558 80.584 17.2558C81.1421 17.2558 81.5969 17.1938 81.9483 17.0697C82.2998 16.925 82.5582 16.7183 82.7235 16.4496C82.8889 16.1602 82.9716 15.7984 82.9716 15.3643C82.9716 15.0129 82.7959 14.7441 82.4445 14.5581C82.093 14.3514 81.6279 14.1756 81.0491 14.0309C80.491 13.8862 79.8605 13.7312 79.1576 13.5658C78.4548 13.3798 77.7623 13.142 77.0801 12.8526C76.6666 12.6873 76.2635 12.4805 75.8708 12.2325C75.478 11.9844 75.1059 11.7053 74.7545 11.3953C74.4237 11.0645 74.1343 10.6821 73.8863 10.248C73.6382 9.79318 73.4418 9.28672 73.2971 8.72857C73.1731 8.17043 73.1111 7.53993 73.1111 6.83709C73.1111 5.57609 73.4211 4.44947 74.0413 3.45721C74.6821 2.46496 75.5504 1.67942 76.646 1.10061C77.7623 0.52179 79.0233 0.232382 80.429 0.232382C81.4419 0.232382 82.3101 0.315071 83.0336 0.480447C83.7571 0.645822 84.3463 0.842206 84.8011 1.0696C85.2765 1.29699 85.6383 1.51405 85.8864 1.72077C86.1344 1.90681 86.2895 2.03085 86.3515 2.09286C87.0337 2.71302 87.4058 3.25049 87.4678 3.70528C87.5298 4.13939 87.2817 4.76989 86.7236 5.59677C86.1034 6.48566 85.4936 6.99213 84.8941 7.11616C84.2946 7.21952 83.6021 7.02313 82.8166 6.52701C82.6512 6.40298 82.4858 6.26861 82.3204 6.1239C82.1551 5.95853 81.9277 5.82416 81.6383 5.7208C81.3695 5.59677 80.9561 5.53475 80.3979 5.53475C80.1912 5.53475 79.9845 5.57609 79.7778 5.65878C79.5711 5.7208 79.3954 5.81382 79.2506 5.93786C79.1059 6.04122 78.9819 6.17558 78.8786 6.34096C78.7959 6.50634 78.7545 6.68205 78.7545 6.86809C78.7545 7.30221 78.9199 7.6433 79.2506 7.89136C79.5814 8.11875 80.0155 8.29446 80.553 8.41849C81.1111 8.54253 81.721 8.66656 82.3825 8.79059C83.044 8.91462 83.7158 9.08 84.398 9.28672C84.9561 9.47277 85.4936 9.71049 86.0104 9.9999C86.5272 10.2893 86.982 10.6614 87.3747 11.1162C87.7675 11.571 88.0776 12.1395 88.305 12.8216C88.553 13.4831 88.6771 14.2997 88.6771 15.2713C88.6771 16.6149 88.4187 17.7622 87.9019 18.7132C87.3851 19.6434 86.7132 20.3979 85.8864 20.9767C85.0802 21.5349 84.2119 21.938 83.2817 22.186C82.3721 22.4548 81.5142 22.5892 80.708 22.5892ZM106.14 0.542462C106.533 0.542462 106.905 0.57347 107.257 0.635487C107.608 0.697502 107.898 0.893886 108.125 1.22464C108.373 1.55539 108.497 2.12387 108.497 2.93008C108.497 3.71561 108.373 4.28409 108.125 4.63552C107.898 4.96627 107.598 5.16265 107.226 5.22467C106.874 5.28669 106.502 5.31769 106.109 5.31769H101.83V19.5194C101.83 19.9741 101.789 20.4186 101.706 20.8527C101.624 21.2661 101.386 21.6072 100.993 21.876C100.621 22.1447 99.9595 22.2791 99.0086 22.2791C98.099 22.2791 97.4478 22.1447 97.0551 21.876C96.6623 21.5866 96.4246 21.2351 96.3419 20.8217C96.2799 20.3876 96.2488 19.9431 96.2488 19.4884V5.31769H91.9387C91.5666 5.31769 91.1945 5.28669 90.8224 5.22467C90.471 5.14198 90.1713 4.93526 89.9232 4.60451C89.6958 4.27376 89.5821 3.70528 89.5821 2.89907C89.5821 2.11353 89.6958 1.55539 89.9232 1.22464C90.1713 0.893886 90.4814 0.697502 90.8535 0.635487C91.2255 0.57347 91.5976 0.542462 91.9697 0.542462H106.14ZM114.502 22.2791C113.571 22.2791 112.91 22.1447 112.517 21.876C112.124 21.5866 111.887 21.2248 111.804 20.7907C111.721 20.3359 111.68 19.8811 111.68 19.4263V3.3952C111.68 2.32025 111.887 1.5864 112.3 1.19363C112.734 0.78019 113.499 0.57347 114.595 0.57347H125.944C126.419 0.57347 126.864 0.614814 127.277 0.697502C127.711 0.78019 128.062 1.01792 128.331 1.41069C128.621 1.80345 128.765 2.47529 128.765 3.42621C128.765 4.35645 128.621 5.01795 128.331 5.41072C128.062 5.80349 127.711 6.04121 127.277 6.1239C126.843 6.20659 126.388 6.24793 125.913 6.24793H117.354V9.00765H123.091C123.566 9.00765 123.99 9.04899 124.362 9.13168C124.734 9.19369 125.034 9.39008 125.261 9.72083C125.489 10.0516 125.603 10.6304 125.603 11.4573C125.603 12.2428 125.489 12.8113 125.261 13.1627C125.034 13.4935 124.724 13.6899 124.331 13.7519C123.938 13.8139 123.504 13.8449 123.029 13.8449H117.354V16.6046H125.944C126.419 16.6046 126.864 16.646 127.277 16.7286C127.711 16.8113 128.062 17.0491 128.331 17.4418C128.621 17.8346 128.765 18.5064 128.765 19.4573C128.765 20.3876 128.621 21.0491 128.331 21.4419C128.062 21.8346 127.711 22.0724 127.277 22.155C126.843 22.2377 126.388 22.2791 125.913 22.2791H114.502ZM134.643 22.2481C133.712 22.2481 133.051 22.1137 132.658 21.845C132.265 21.5556 132.028 21.1938 131.945 20.7597C131.862 20.3049 131.821 19.8501 131.821 19.3953V3.3952C131.821 2.94041 131.862 2.49597 131.945 2.06185C132.028 1.62774 132.265 1.27632 132.658 1.00758C133.051 0.718174 133.723 0.57347 134.674 0.57347H140.906C141.692 0.57347 142.539 0.738846 143.449 1.0696C144.358 1.37968 145.216 1.86547 146.022 2.52697C146.829 3.18848 147.49 4.01536 148.007 5.00761C148.524 5.99987 148.782 7.17818 148.782 8.54253C148.782 9.49344 148.638 10.3823 148.348 11.2092C148.079 12.0361 147.666 12.7906 147.108 13.4728C146.57 14.1343 145.909 14.7235 145.123 15.2403C144.358 15.7364 143.48 16.1292 142.488 16.4186H137.495V19.4263C137.495 19.8811 137.454 20.3256 137.371 20.7597C137.289 21.1938 137.051 21.5556 136.658 21.845C136.265 22.1137 135.593 22.2481 134.643 22.2481ZM147.635 21.5039C146.705 22.2067 145.971 22.4858 145.433 22.3411C144.896 22.2171 144.317 21.7416 143.697 20.9147L137.991 13.1627L144.441 12.3565L148.286 17.5348C148.7 18.1343 148.958 18.6408 149.061 19.0542C149.185 19.4677 149.134 19.8604 148.906 20.2325C148.679 20.6046 148.255 21.0284 147.635 21.5039ZM137.495 10.7751H140.906C141.092 10.7751 141.309 10.7441 141.557 10.6821C141.826 10.5994 142.074 10.4754 142.302 10.31C142.529 10.1239 142.715 9.88621 142.86 9.5968C143.025 9.30739 143.108 8.94563 143.108 8.51152C143.108 8.07741 143.004 7.69497 142.798 7.36422C142.591 7.0128 142.312 6.74406 141.96 6.55801C141.63 6.35129 141.258 6.24793 140.844 6.24793H137.495V10.7751Z" fill="#2A4263"/>
</svg>
