<svg width="526" height="165" viewBox="0 0 526 165" fill="none" xmlns="http://www.w3.org/2000/svg">
<path d="M162.191 108.171C156.908 108.171 151.951 107.194 147.319 105.24C142.76 103.214 138.744 100.428 135.27 96.8816C131.796 93.3355 129.046 89.2467 127.02 84.6151C125.066 79.9112 124.089 74.9178 124.089 69.6349C124.089 64.1349 125.03 58.9967 126.911 54.2204C128.865 49.4441 131.543 45.2468 134.944 41.6283C138.346 38.0099 142.29 35.1876 146.777 33.1612C151.336 31.1349 156.184 30.1218 161.323 30.1218C166.605 30.1218 171.527 31.1349 176.086 33.1612C180.717 35.1152 184.77 37.8652 188.244 41.4112C191.717 44.9573 194.431 49.1185 196.385 53.8948C198.339 58.5987 199.316 63.7007 199.316 69.2007C199.316 74.5559 198.339 79.5855 196.385 84.2895C194.503 88.9934 191.826 93.1546 188.352 96.773C184.951 100.319 181.007 103.105 176.52 105.132C172.105 107.158 167.329 108.171 162.191 108.171ZM161.648 88.3059C164.109 88.3059 166.425 87.8355 168.596 86.8947C170.767 85.8816 172.648 84.5428 174.24 82.8783C175.905 81.1415 177.171 79.1151 178.04 76.7994C178.98 74.4112 179.451 71.8783 179.451 69.2007C179.451 66.5231 178.98 64.0263 178.04 61.7106C177.099 59.3948 175.796 57.3685 174.132 55.6316C172.54 53.8224 170.658 52.4474 168.487 51.5066C166.388 50.4935 164.145 49.9869 161.757 49.9869C159.296 49.9869 156.98 50.4935 154.809 51.5066C152.711 52.4474 150.829 53.8224 149.165 55.6316C147.573 57.3685 146.306 59.3948 145.365 61.7106C144.425 64.0263 143.954 66.5231 143.954 69.2007C143.954 71.8059 144.425 74.2665 145.365 76.5823C146.306 78.898 147.573 80.9605 149.165 82.7697C150.829 84.5066 152.711 85.8816 154.809 86.8947C156.98 87.8355 159.26 88.3059 161.648 88.3059ZM245.853 108.171C240.57 108.171 235.613 107.194 230.981 105.24C226.422 103.214 222.405 100.428 218.932 96.8816C215.458 93.3355 212.708 89.2467 210.682 84.6151C208.728 79.9112 207.751 74.9178 207.751 69.6349C207.751 64.1349 208.692 58.9967 210.573 54.2204C212.527 49.4441 215.205 45.2468 218.606 41.6283C222.007 38.0099 225.951 35.1876 230.438 33.1612C234.998 31.1349 239.846 30.1218 244.984 30.1218C250.267 30.1218 255.188 31.1349 259.748 33.1612C264.379 35.1152 268.432 37.8652 271.905 41.4112C275.379 44.9573 278.093 49.1185 280.047 53.8948C282.001 58.5987 282.978 63.7007 282.978 69.2007C282.978 74.5559 282.001 79.5855 280.047 84.2895C278.165 88.9934 275.488 93.1546 272.014 96.773C268.613 100.319 264.669 103.105 260.182 105.132C255.767 107.158 250.991 108.171 245.853 108.171ZM245.31 88.3059C247.771 88.3059 250.086 87.8355 252.257 86.8947C254.428 85.8816 256.31 84.5428 257.902 82.8783C259.567 81.1415 260.833 79.1151 261.701 76.7994C262.642 74.4112 263.113 71.8783 263.113 69.2007C263.113 66.5231 262.642 64.0263 261.701 61.7106C260.761 59.3948 259.458 57.3685 257.794 55.6316C256.201 53.8224 254.32 52.4474 252.149 51.5066C250.05 50.4935 247.807 49.9869 245.419 49.9869C242.958 49.9869 240.642 50.4935 238.471 51.5066C236.373 52.4474 234.491 53.8224 232.826 55.6316C231.234 57.3685 229.968 59.3948 229.027 61.7106C228.086 64.0263 227.616 66.5231 227.616 69.2007C227.616 71.8059 228.086 74.2665 229.027 76.5823C229.968 78.898 231.234 80.9605 232.826 82.7697C234.491 84.5066 236.373 85.8816 238.471 86.8947C240.642 87.8355 242.922 88.3059 245.31 88.3059ZM367.15 106.977C363.893 106.977 361.578 106.507 360.203 105.566C358.828 104.553 357.995 103.286 357.706 101.766C357.417 100.174 357.272 98.5822 357.272 96.9901V40.8685C357.272 39.2764 357.417 37.7204 357.706 36.2007C357.995 34.681 358.828 33.4507 360.203 32.5099C361.578 31.4968 363.93 30.9902 367.259 30.9902C370.588 30.9902 372.903 31.4968 374.206 32.5099C375.581 33.4507 376.413 34.681 376.703 36.2007C376.992 37.7204 377.137 39.3125 377.137 40.977V90.0428H403.624C404.999 90.0428 406.301 90.1513 407.532 90.3684C408.834 90.5855 409.884 91.3092 410.68 92.5395C411.548 93.6974 411.982 95.6875 411.982 98.5099C411.982 101.26 411.548 103.25 410.68 104.48C409.811 105.638 408.726 106.326 407.423 106.543C406.193 106.832 404.89 106.977 403.515 106.977H367.15ZM431.992 106.977C428.736 106.977 426.42 106.507 425.045 105.566C423.67 104.553 422.838 103.286 422.548 101.766C422.259 100.174 422.114 98.5822 422.114 96.9901V40.8685C422.114 39.2764 422.259 37.7204 422.548 36.2007C422.838 34.681 423.67 33.4507 425.045 32.5099C426.42 31.4968 428.772 30.9902 432.101 30.9902C435.43 30.9902 437.746 31.4968 439.048 32.5099C440.423 33.4507 441.256 34.681 441.545 36.2007C441.835 37.7204 441.979 39.3125 441.979 40.977V97.0987C441.979 98.6908 441.835 100.247 441.545 101.766C441.256 103.286 440.423 104.553 439.048 105.566C437.673 106.507 435.321 106.977 431.992 106.977ZM520.056 104.263C518.103 106 516.366 107.122 514.846 107.628C513.399 108.207 511.987 108.135 510.612 107.411C509.237 106.76 507.718 105.493 506.053 103.612L455.034 47.5987C452.645 45.0658 451.415 42.75 451.343 40.6514C451.343 38.5527 452.754 36.2007 455.576 33.5954C457.53 31.7862 459.231 30.6283 460.678 30.1218C462.198 29.5428 463.645 29.6152 465.02 30.3389C466.468 30.9902 467.987 32.2928 469.58 34.2468L520.599 90.3684C523.06 93.0461 524.326 95.398 524.399 97.4243C524.471 99.3783 523.024 101.658 520.056 104.263ZM455.685 104.263C452.79 101.658 451.343 99.3783 451.343 97.4243C451.415 95.398 452.682 93.0461 455.142 90.3684L506.162 34.2468C507.826 32.2928 509.346 30.9902 510.721 30.3389C512.096 29.6152 513.507 29.5428 514.955 30.1218C516.474 30.6283 518.211 31.7862 520.165 33.5954C523.06 36.2007 524.471 38.5527 524.399 40.6514C524.326 42.75 523.096 45.0658 520.708 47.5987L469.688 103.612C468.096 105.493 466.576 106.76 465.129 107.411C463.754 108.135 462.307 108.207 460.787 107.628C459.339 107.122 457.639 106 455.685 104.263Z" fill="black"/>
<path d="M89.4419 112.502C87.6743 114.609 85.4418 115.806 82.7444 116.093C80.0381 116.279 77.5763 115.441 75.3588 113.58C74.5827 112.929 73.9595 112.264 73.4892 111.586C72.9635 110.862 72.6417 110.119 72.5238 109.359L59.9065 59.378L46.2304 75.6766C45.207 76.8962 44.1005 78.0461 42.9108 79.1261C41.6656 80.1597 40.1953 80.6736 38.4996 80.6678C36.7951 80.5601 34.7232 79.4829 32.2839 77.4361C29.7338 75.2963 28.2345 73.4242 27.7859 71.8196C27.3838 70.1597 27.5603 68.6546 28.3155 67.3043C29.1171 65.8986 30.0296 64.586 31.053 63.3664L57.1493 32.266C58.917 30.1594 61.1539 29.0134 63.8602 28.828C66.613 28.5871 69.0981 29.3971 71.3156 31.2578C72.0917 31.909 72.7426 32.5969 73.2683 33.3214C73.7386 33.9994 74.0327 34.7185 74.1505 35.4787L86.7678 85.4599L101.7 67.6645C102.723 66.4449 103.811 65.3738 104.963 64.4511C106.162 63.473 107.59 63.0655 109.248 63.2286C110.897 63.2898 112.914 64.3206 115.298 66.3208C117.792 68.4141 119.241 70.2907 119.643 71.9507C120.091 73.5552 119.938 75.0326 119.183 76.3828C118.428 77.7331 117.515 79.0457 116.445 80.3208L89.4419 112.502Z" fill="#FF0000"/>
<path d="M302.876 30.6192C299.62 30.6192 297.304 31.0896 295.929 32.0304C294.554 33.0436 293.722 34.31 293.432 35.8297C293.143 37.4219 292.998 39.014 292.998 40.6061V96.7277C292.998 98.3198 293.143 99.8757 293.432 101.395C293.722 102.915 294.554 104.145 295.929 105.086C297.304 106.099 299.656 106.606 302.985 106.606C306.314 106.606 308.63 106.099 309.932 105.086C311.307 104.145 312.139 102.915 312.429 101.395C312.718 99.8757 312.863 98.2836 312.863 96.6192V47.5534L339.35 47.5534C340.725 47.5534 342.028 47.4449 343.258 47.2278C344.56 47.0107 345.61 46.287 346.406 45.0567C347.274 43.8988 347.708 41.9087 347.708 39.0863C347.708 36.3363 347.274 34.3462 346.406 33.1159C345.537 31.958 344.452 31.2705 343.149 31.0534C341.919 30.764 340.616 30.6192 339.241 30.6192L302.876 30.6192Z" fill="black"/>
<path d="M329.905 57.9145C326.07 57.9145 323.356 58.6743 321.764 60.1941C320.244 61.7138 319.484 64.3553 319.484 68.1184C319.484 70.796 319.81 72.8947 320.461 74.4145C321.185 75.9342 322.306 77.0197 323.826 77.671C325.346 78.3947 327.408 78.7566 330.014 78.7566C333.849 78.7566 336.527 77.9605 338.047 76.3684C339.566 74.8487 340.326 72.1349 340.326 68.227C340.326 65.6941 340.001 63.6678 339.349 62.148C338.698 60.6283 337.612 59.5428 336.093 58.8915C334.573 58.2401 332.51 57.9145 329.905 57.9145Z" fill="black"/>
</svg>
