<svg width="197" height="61" viewBox="0 0 197 61" fill="none" xmlns="http://www.w3.org/2000/svg">
<path d="M62.1693 39.8C60.2227 39.8 58.396 39.44 56.6893 38.72C55.0093 37.9733 53.5293 36.9467 52.2493 35.64C50.9693 34.3333 49.956 32.8267 49.2093 31.12C48.4893 29.3867 48.1293 27.5467 48.1293 25.6C48.1293 23.5733 48.476 21.68 49.1693 19.92C49.8893 18.16 50.876 16.6133 52.1293 15.28C53.3827 13.9467 54.836 12.9067 56.4893 12.16C58.1693 11.4133 59.956 11.04 61.8493 11.04C63.796 11.04 65.6093 11.4133 67.2893 12.16C68.996 12.88 70.4893 13.8933 71.7693 15.2C73.0493 16.5067 74.0493 18.04 74.7693 19.8C75.4893 21.5333 75.8493 23.4133 75.8493 25.44C75.8493 27.4133 75.4893 29.2667 74.7693 31C74.076 32.7333 73.0893 34.2667 71.8093 35.6C70.556 36.9067 69.1027 37.9333 67.4493 38.68C65.8227 39.4267 64.0627 39.8 62.1693 39.8ZM61.9693 32.48C62.876 32.48 63.7293 32.3067 64.5293 31.96C65.3293 31.5867 66.0227 31.0933 66.6093 30.48C67.2227 29.84 67.6893 29.0933 68.0093 28.24C68.356 27.36 68.5293 26.4267 68.5293 25.44C68.5293 24.4533 68.356 23.5333 68.0093 22.68C67.6627 21.8267 67.1827 21.08 66.5693 20.44C65.9827 19.7733 65.2893 19.2667 64.4893 18.92C63.716 18.5467 62.8893 18.36 62.0093 18.36C61.1027 18.36 60.2493 18.5467 59.4493 18.92C58.676 19.2667 57.9827 19.7733 57.3693 20.44C56.7827 21.08 56.316 21.8267 55.9693 22.68C55.6227 23.5333 55.4493 24.4533 55.4493 25.44C55.4493 26.4 55.6227 27.3067 55.9693 28.16C56.316 29.0133 56.7827 29.7733 57.3693 30.44C57.9827 31.08 58.676 31.5867 59.4493 31.96C60.2493 32.3067 61.0893 32.48 61.9693 32.48ZM92.9975 39.8C91.0508 39.8 89.2241 39.44 87.5175 38.72C85.8375 37.9733 84.3575 36.9467 83.0775 35.64C81.7975 34.3333 80.7841 32.8267 80.0375 31.12C79.3175 29.3867 78.9575 27.5467 78.9575 25.6C78.9575 23.5733 79.3041 21.68 79.9975 19.92C80.7175 18.16 81.7041 16.6133 82.9575 15.28C84.2108 13.9467 85.6641 12.9067 87.3175 12.16C88.9975 11.4133 90.7841 11.04 92.6775 11.04C94.6241 11.04 96.4375 11.4133 98.1175 12.16C99.8241 12.88 101.317 13.8933 102.597 15.2C103.877 16.5067 104.877 18.04 105.597 19.8C106.317 21.5333 106.677 23.4133 106.677 25.44C106.677 27.4133 106.317 29.2667 105.597 31C104.904 32.7333 103.917 34.2667 102.637 35.6C101.384 36.9067 99.9308 37.9333 98.2775 38.68C96.6508 39.4267 94.8908 39.8 92.9975 39.8ZM92.7975 32.48C93.7041 32.48 94.5575 32.3067 95.3575 31.96C96.1575 31.5867 96.8508 31.0933 97.4375 30.48C98.0508 29.84 98.5175 29.0933 98.8375 28.24C99.1841 27.36 99.3575 26.4267 99.3575 25.44C99.3575 24.4533 99.1841 23.5333 98.8375 22.68C98.4908 21.8267 98.0108 21.08 97.3975 20.44C96.8108 19.7733 96.1175 19.2667 95.3175 18.92C94.5441 18.5467 93.7175 18.36 92.8375 18.36C91.9308 18.36 91.0775 18.5467 90.2775 18.92C89.5041 19.2667 88.8108 19.7733 88.1975 20.44C87.6108 21.08 87.1441 21.8267 86.7975 22.68C86.4508 23.5333 86.2775 24.4533 86.2775 25.44C86.2775 26.4 86.4508 27.3067 86.7975 28.16C87.1441 29.0133 87.6108 29.7733 88.1975 30.44C88.8108 31.08 89.5041 31.5867 90.2775 31.96C91.0775 32.3067 91.9175 32.48 92.7975 32.48ZM137.694 39.36C136.494 39.36 135.64 39.1867 135.134 38.84C134.627 38.4667 134.32 38 134.214 37.44C134.107 36.8533 134.054 36.2667 134.054 35.68V15C134.054 14.4133 134.107 13.84 134.214 13.28C134.32 12.72 134.627 12.2667 135.134 11.92C135.64 11.5467 136.507 11.36 137.734 11.36C138.96 11.36 139.814 11.5467 140.294 11.92C140.8 12.2667 141.107 12.72 141.214 13.28C141.32 13.84 141.374 14.4267 141.374 15.04V33.12H151.134C151.64 33.12 152.12 33.16 152.574 33.24C153.054 33.32 153.44 33.5867 153.734 34.04C154.054 34.4667 154.214 35.2 154.214 36.24C154.214 37.2533 154.054 37.9867 153.734 38.44C153.414 38.8667 153.014 39.12 152.534 39.2C152.08 39.3067 151.6 39.36 151.094 39.36H137.694ZM161.587 39.36C160.387 39.36 159.534 39.1867 159.027 38.84C158.52 38.4667 158.214 38 158.107 37.44C158 36.8533 157.947 36.2667 157.947 35.68V15C157.947 14.4133 158 13.84 158.107 13.28C158.214 12.72 158.52 12.2667 159.027 11.92C159.534 11.5467 160.4 11.36 161.627 11.36C162.854 11.36 163.707 11.5467 164.187 11.92C164.694 12.2667 165 12.72 165.107 13.28C165.214 13.84 165.267 14.4267 165.267 15.04V35.72C165.267 36.3067 165.214 36.88 165.107 37.44C165 38 164.694 38.4667 164.187 38.84C163.68 39.1867 162.814 39.36 161.587 39.36ZM194.037 38.36C193.317 39 192.677 39.4133 192.117 39.6C191.584 39.8133 191.064 39.7867 190.557 39.52C190.051 39.28 189.491 38.8133 188.877 38.12L170.077 17.48C169.197 16.5467 168.744 15.6933 168.717 14.92C168.717 14.1467 169.237 13.28 170.277 12.32C170.997 11.6533 171.624 11.2267 172.157 11.04C172.717 10.8267 173.251 10.8533 173.757 11.12C174.291 11.36 174.851 11.84 175.437 12.56L194.237 33.24C195.144 34.2267 195.611 35.0933 195.637 35.84C195.664 36.56 195.131 37.4 194.037 38.36ZM170.317 38.36C169.251 37.4 168.717 36.56 168.717 35.84C168.744 35.0933 169.211 34.2267 170.117 33.24L188.917 12.56C189.531 11.84 190.091 11.36 190.597 11.12C191.104 10.8533 191.624 10.8267 192.157 11.04C192.717 11.2267 193.357 11.6533 194.077 12.32C195.144 13.28 195.664 14.1467 195.637 14.92C195.611 15.6933 195.157 16.5467 194.277 17.48L175.477 38.12C174.891 38.8133 174.331 39.28 173.797 39.52C173.291 39.7867 172.757 39.8133 172.197 39.6C171.664 39.4133 171.037 39 170.317 38.36Z" fill="black"/>
<path d="M32.9125 41.3495C32.2611 42.1257 31.4385 42.5668 30.4446 42.6727C29.4473 42.741 28.5402 42.4324 27.7231 41.7467C27.4371 41.5067 27.2074 41.2618 27.0342 41.012C26.8404 40.745 26.7219 40.4715 26.6784 40.1914L22.0291 21.774L16.9897 27.7798C16.6126 28.2292 16.2048 28.6529 15.7665 29.0509C15.3076 29.4318 14.7658 29.6211 14.141 29.619C13.5129 29.5793 12.7495 29.1824 11.8506 28.4282C10.9109 27.6397 10.3585 26.9498 10.1932 26.3586C10.045 25.7469 10.1101 25.1923 10.3883 24.6947C10.6837 24.1768 11.0199 23.6931 11.397 23.2437L21.0131 11.7836C21.6645 11.0074 22.4888 10.5851 23.486 10.5168C24.5004 10.428 25.4161 10.7265 26.2332 11.4121C26.5192 11.6521 26.7591 11.9056 26.9528 12.1725C27.1261 12.4224 27.2344 12.6874 27.2778 12.9675L31.9271 31.3848L37.4294 24.8275C37.8065 24.3781 38.2073 23.9834 38.6318 23.6434C39.0735 23.2829 39.5998 23.1328 40.2108 23.1929C40.8185 23.2155 41.5615 23.5953 42.4399 24.3323C43.3592 25.1037 43.8929 25.7952 44.041 26.4068C44.2063 26.9981 44.1498 27.5425 43.8716 28.04C43.5933 28.5376 43.2571 29.0213 42.8629 29.4911L32.9125 41.3495Z" fill="black"/>
<path d="M113.64 11.64C112.44 11.64 111.587 11.8133 111.08 12.16C110.573 12.5333 110.267 13 110.16 13.56C110.053 14.1467 110 14.7333 110 15.32V36C110 36.5867 110.053 37.16 110.16 37.72C110.267 38.28 110.573 38.7333 111.08 39.08C111.587 39.4533 112.453 39.64 113.68 39.64C114.907 39.64 115.76 39.4533 116.24 39.08C116.747 38.7333 117.053 38.28 117.16 37.72C117.267 37.16 117.32 36.5733 117.32 35.96V17.88H127.08C127.587 17.88 128.067 17.84 128.52 17.76C129 17.68 129.387 17.4133 129.68 16.96C130 16.5333 130.16 15.8 130.16 14.76C130.16 13.7467 130 13.0133 129.68 12.56C129.36 12.1333 128.96 11.88 128.48 11.8C128.027 11.6933 127.547 11.64 127.04 11.64H113.64Z" fill="black"/>
<path d="M123.4 21.6C121.987 21.6 120.987 21.88 120.4 22.44C119.84 23 119.56 23.9733 119.56 25.36C119.56 26.3467 119.68 27.12 119.92 27.68C120.187 28.24 120.6 28.64 121.16 28.88C121.72 29.1467 122.48 29.28 123.44 29.28C124.853 29.28 125.84 28.9867 126.4 28.4C126.96 27.84 127.24 26.84 127.24 25.4C127.24 24.4667 127.12 23.72 126.88 23.16C126.64 22.6 126.24 22.2 125.68 21.96C125.12 21.72 124.36 21.6 123.4 21.6Z" fill="black"/>
</svg>