<svg width="19" height="23" viewBox="0 0 19 23" fill="none" xmlns="http://www.w3.org/2000/svg">
<path d="M3.25584 22.3411C2.4703 22.3411 1.79846 22.0724 1.24032 21.5349C0.702848 20.9767 0.434112 20.2842 0.434112 19.4573C0.434112 19.1679 0.46512 18.9095 0.527136 18.6821C0.589152 18.4341 0.692512 18.2274 0.837216 18.062L9.45744 6.1239H3.37987C2.92509 6.1239 2.4703 6.09289 2.01552 6.03088C1.56074 5.94819 1.1783 5.7208 0.868224 5.3487C0.578816 4.95593 0.434112 4.30477 0.434112 3.3952C0.434112 2.44429 0.56848 1.77245 0.837216 1.37968C1.12662 0.986911 1.48838 0.749183 1.9225 0.666494C2.37728 0.583806 2.83206 0.542462 3.28685 0.542462H14.8838C15.6694 0.542462 16.3309 0.821534 16.8684 1.37968C17.4265 1.93782 17.7056 2.63033 17.7056 3.45721C17.7056 3.74662 17.6746 4.01536 17.6125 4.26342C17.5505 4.49081 17.4472 4.6872 17.3025 4.85257L8.68224 16.7907H15.318C15.7727 16.7907 16.2068 16.832 16.6203 16.9147C17.0544 16.9974 17.4058 17.2351 17.6746 17.6279C17.964 18 18.1087 18.6305 18.1087 19.5194C18.1087 20.4496 17.964 21.1111 17.6746 21.5039C17.4058 21.8966 17.0544 22.1344 16.6203 22.2171C16.1862 22.2997 15.7314 22.3411 15.2559 22.3411H3.25584Z" fill="white"/>
</svg>
