<svg width="781" height="172" viewBox="0 0 781 172" fill="none" xmlns="http://www.w3.org/2000/svg">
<g clip-path="url(#clip0_1048_643)">
<path d="M228.75 139C221.45 139 214.6 137.65 208.2 134.95C201.9 132.15 196.35 128.3 191.55 123.4C186.75 118.5 182.95 112.85 180.15 106.45C177.45 99.95 176.1 93.05 176.1 85.75C176.1 78.15 177.4 71.05 180 64.45C182.7 57.85 186.4 52.05 191.1 47.05C195.8 42.05 201.25 38.15 207.45 35.35C213.75 32.55 220.45 31.15 227.55 31.15C234.85 31.15 241.65 32.55 247.95 35.35C254.35 38.05 259.95 41.85 264.75 46.75C269.55 51.65 273.3 57.4 276 64C278.7 70.5 280.05 77.55 280.05 85.15C280.05 92.55 278.7 99.5 276 106C273.4 112.5 269.7 118.25 264.9 123.25C260.2 128.15 254.75 132 248.55 134.8C242.45 137.6 235.85 139 228.75 139ZM228 111.55C231.4 111.55 234.6 110.9 237.6 109.6C240.6 108.2 243.2 106.35 245.4 104.05C247.7 101.65 249.45 98.85 250.65 95.65C251.95 92.35 252.6 88.85 252.6 85.15C252.6 81.45 251.95 78 250.65 74.8C249.35 71.6 247.55 68.8 245.25 66.4C243.05 63.9 240.45 62 237.45 60.7C234.55 59.3 231.45 58.6 228.15 58.6C224.75 58.6 221.55 59.3 218.55 60.7C215.65 62 213.05 63.9 210.75 66.4C208.55 68.8 206.8 71.6 205.5 74.8C204.2 78 203.55 81.45 203.55 85.15C203.55 88.75 204.2 92.15 205.5 95.35C206.8 98.55 208.55 101.4 210.75 103.9C213.05 106.3 215.65 108.2 218.55 109.6C221.55 110.9 224.7 111.55 228 111.55ZM344.355 139C337.055 139 330.205 137.65 323.805 134.95C317.505 132.15 311.955 128.3 307.155 123.4C302.355 118.5 298.555 112.85 295.755 106.45C293.055 99.95 291.705 93.05 291.705 85.75C291.705 78.15 293.005 71.05 295.605 64.45C298.305 57.85 302.005 52.05 306.705 47.05C311.405 42.05 316.855 38.15 323.055 35.35C329.355 32.55 336.055 31.15 343.155 31.15C350.455 31.15 357.255 32.55 363.555 35.35C369.955 38.05 375.555 41.85 380.355 46.75C385.155 51.65 388.905 57.4 391.605 64C394.305 70.5 395.655 77.55 395.655 85.15C395.655 92.55 394.305 99.5 391.605 106C389.005 112.5 385.305 118.25 380.505 123.25C375.805 128.15 370.355 132 364.155 134.8C358.055 137.6 351.455 139 344.355 139ZM343.605 111.55C347.005 111.55 350.205 110.9 353.205 109.6C356.205 108.2 358.805 106.35 361.005 104.05C363.305 101.65 365.055 98.85 366.255 95.65C367.555 92.35 368.205 88.85 368.205 85.15C368.205 81.45 367.555 78 366.255 74.8C364.955 71.6 363.155 68.8 360.855 66.4C358.655 63.9 356.055 62 353.055 60.7C350.155 59.3 347.055 58.6 343.755 58.6C340.355 58.6 337.155 59.3 334.155 60.7C331.255 62 328.655 63.9 326.355 66.4C324.155 68.8 322.405 71.6 321.105 74.8C319.805 78 319.155 81.45 319.155 85.15C319.155 88.75 319.805 92.15 321.105 95.35C322.405 98.55 324.155 101.4 326.355 103.9C328.655 106.3 331.255 108.2 334.155 109.6C337.155 110.9 340.305 111.55 343.605 111.55ZM511.966 137.35C507.466 137.35 504.266 136.7 502.366 135.4C500.466 134 499.316 132.25 498.916 130.15C498.516 127.95 498.316 125.75 498.316 123.55V46C498.316 43.8 498.516 41.65 498.916 39.55C499.316 37.45 500.466 35.75 502.366 34.45C504.266 33.05 507.516 32.35 512.116 32.35C516.716 32.35 519.916 33.05 521.716 34.45C523.616 35.75 524.766 37.45 525.166 39.55C525.566 41.65 525.766 43.85 525.766 46.15V113.95H562.366C564.266 113.95 566.066 114.1 567.766 114.4C569.566 114.7 571.016 115.7 572.116 117.4C573.316 119 573.916 121.75 573.916 125.65C573.916 129.45 573.316 132.2 572.116 133.9C570.916 135.5 569.416 136.45 567.616 136.75C565.916 137.15 564.116 137.35 562.216 137.35H511.966ZM601.567 137.35C597.067 137.35 593.867 136.7 591.967 135.4C590.067 134 588.917 132.25 588.517 130.15C588.117 127.95 587.917 125.75 587.917 123.55V46C587.917 43.8 588.117 41.65 588.517 39.55C588.917 37.45 590.067 35.75 591.967 34.45C593.867 33.05 597.117 32.35 601.717 32.35C606.317 32.35 609.517 33.05 611.317 34.45C613.217 35.75 614.367 37.45 614.767 39.55C615.167 41.65 615.367 43.85 615.367 46.15V123.7C615.367 125.9 615.167 128.05 614.767 130.15C614.367 132.25 613.217 134 611.317 135.4C609.417 136.7 606.167 137.35 601.567 137.35ZM723.255 133.6C720.555 136 718.155 137.55 716.055 138.25C714.055 139.05 712.105 138.95 710.205 137.95C708.305 137.05 706.205 135.3 703.905 132.7L633.405 55.3C630.105 51.8 628.405 48.6 628.305 45.7C628.305 42.8 630.255 39.55 634.155 35.95C636.855 33.45 639.205 31.85 641.205 31.15C643.305 30.35 645.305 30.45 647.205 31.45C649.205 32.35 651.305 34.15 653.505 36.85L724.005 114.4C727.405 118.1 729.155 121.35 729.255 124.15C729.355 126.85 727.355 130 723.255 133.6ZM634.305 133.6C630.305 130 628.305 126.85 628.305 124.15C628.405 121.35 630.155 118.1 633.555 114.4L704.055 36.85C706.355 34.15 708.455 32.35 710.355 31.45C712.255 30.45 714.205 30.35 716.205 31.15C718.305 31.85 720.705 33.45 723.405 35.95C727.405 39.55 729.355 42.8 729.255 45.7C729.155 48.6 727.455 51.8 724.155 55.3L653.655 132.7C651.455 135.3 649.355 137.05 647.355 137.95C645.455 138.95 643.455 139.05 641.355 138.25C639.355 137.55 637.005 136 634.305 133.6Z" fill="white"/>
<path d="M123.23 149.786C120.788 152.697 117.703 154.351 113.976 154.748C110.236 155.004 106.834 153.847 103.77 151.276C102.698 150.376 101.836 149.458 101.187 148.521C100.46 147.52 100.016 146.494 99.8526 145.443L82.4178 76.3782L63.5198 98.8999C62.1057 100.585 60.5767 102.174 58.9327 103.667C57.2122 105.095 55.1804 105.805 52.8373 105.797C50.4819 105.648 47.6189 104.16 44.2483 101.331C40.7245 98.3744 38.6527 95.7874 38.0328 93.5703C37.4773 91.2765 37.7212 89.1967 38.7646 87.3309C39.8723 85.3885 41.1333 83.5747 42.5474 81.8894L78.6078 38.9143C81.0504 36.0033 84.1414 34.4197 87.881 34.1635C91.6849 33.8308 95.1189 34.9499 98.1831 37.5211C99.2555 38.421 100.155 39.3715 100.881 40.3727C101.531 41.3096 101.938 42.3032 102.1 43.3537L119.535 112.419L140.169 87.8287C141.583 86.1434 143.086 84.6633 144.678 83.3883C146.334 82.0367 148.308 81.4736 150.599 81.6991C152.878 81.7836 155.664 83.2079 158.958 85.9719C162.405 88.8644 164.407 91.4576 164.962 93.7513C165.582 95.9685 165.37 98.01 164.327 99.8758C163.284 101.742 162.023 103.555 160.544 105.317L123.23 149.786Z" fill="white"/>
<path d="M423.15 34.65C418.65 34.65 415.45 35.3 413.55 36.6C411.65 38 410.5 39.75 410.1 41.85C409.7 44.05 409.5 46.25 409.5 48.45V126C409.5 128.2 409.7 130.35 410.1 132.45C410.5 134.55 411.65 136.25 413.55 137.55C415.45 138.95 418.7 139.65 423.3 139.65C427.9 139.65 431.1 138.95 432.9 137.55C434.8 136.25 435.95 134.55 436.35 132.45C436.75 130.35 436.95 128.15 436.95 125.85L436.95 58.05L473.55 58.05C475.45 58.05 477.25 57.9 478.95 57.6C480.75 57.3 482.2 56.3 483.3 54.6C484.5 53 485.1 50.25 485.1 46.35C485.1 42.55 484.5 39.8 483.3 38.1C482.1 36.5 480.6 35.55 478.8 35.25C477.1 34.85 475.3 34.65 473.4 34.65H423.15Z" fill="white"/>
<path d="M460.5 70.5C455.2 70.5 451.45 71.55 449.25 73.65C447.15 75.75 446.1 79.4 446.1 84.6C446.1 88.3 446.55 91.2 447.45 93.3C448.45 95.4 450 96.9 452.1 97.8C454.2 98.8 457.05 99.3 460.65 99.3C465.95 99.3 469.65 98.2 471.75 96C473.85 93.9 474.9 90.15 474.9 84.75C474.9 81.25 474.45 78.45 473.55 76.35C472.65 74.25 471.15 72.75 469.05 71.85C466.95 70.95 464.1 70.5 460.5 70.5Z" fill="white"/>
</g>
<defs>
<clipPath id="clip0_1048_643">
<rect width="781" height="172" fill="white"/>
</clipPath>
</defs>
</svg>
