<?xml version="1.0" standalone="no"?>
<!DOCTYPE svg PUBLIC "-//W3C//DTD SVG 20010904//EN"
 "http://www.w3.org/TR/2001/REC-SVG-20010904/DTD/svg10.dtd">
<svg version="1.0" xmlns="http://www.w3.org/2000/svg"
 width="1512.000000pt" height="293.000000pt" viewBox="0 0 1512.000000 293.000000"
 preserveAspectRatio="xMidYMid meet">

<g transform="translate(0.000000,293.000000) scale(0.100000,-0.100000)"
fill="#000000" stroke="none">
<path d="M6681 2569 c-46 -14 -104 -52 -124 -82 -15 -23 -20 -24 -89 -20 l-73
5 43 -31 c24 -18 57 -52 75 -77 l31 -44 91 6 c49 3 96 8 104 10 7 2 63 -1 125
-7 l111 -11 14 24 c9 12 36 44 62 70 25 26 44 50 41 53 -3 3 -22 5 -43 5 -34
0 -38 -3 -41 -27 -3 -26 -7 -29 -63 -36 -57 -8 -60 -8 -81 19 -12 15 -28 46
-34 70 -7 24 -20 50 -30 59 -23 20 -76 27 -119 14z"/>
<path d="M2813 2518 c-5 -7 -14 -30 -20 -50 -9 -30 -8 -38 2 -38 37 0 101 -81
115 -145 4 -23 12 -31 37 -36 31 -6 32 -6 27 25 -18 101 -58 199 -100 240 -19
19 -48 21 -61 4z"/>
<path d="M8890 2430 c64 -23 75 -24 40 -6 -14 8 -41 16 -60 20 -24 4 -18 0 20
-14z"/>
<path d="M8961 2406 c10 -9 69 -36 69 -32 0 6 -55 36 -66 36 -4 0 -5 -2 -3 -4z"/>
<path d="M1104 2352 c-93 -32 -150 -97 -174 -198 -12 -50 -12 -64 3 -120 9
-35 26 -77 37 -92 l21 -28 -45 -75 c-59 -97 -61 -112 -16 -120 l35 -6 -36 -2
c-34 -1 -39 3 -72 58 -73 117 -214 222 -362 267 -47 15 -92 19 -205 18 -128 0
-153 -3 -215 -24 -68 -24 -70 -26 -73 -62 l-3 -36 93 5 c82 5 100 3 142 -16
60 -26 72 -26 131 0 40 18 62 21 134 17 72 -3 97 -9 153 -37 109 -54 192 -159
219 -278 16 -74 4 -142 -42 -217 -29 -48 -39 -76 -39 -108 -1 -89 -76 -166
-204 -208 -46 -16 -52 -19 -22 -14 108 16 242 94 301 174 l37 50 49 -54 c61
-67 159 -116 289 -146 171 -38 163 -29 64 -80 -175 -90 -332 -208 -355 -267
-21 -56 24 -113 92 -113 33 0 48 9 124 80 101 93 153 135 161 127 3 -3 0 -41
-7 -84 -11 -71 -10 -89 10 -187 13 -60 34 -141 48 -180 13 -39 27 -89 30 -111
2 -22 7 -42 10 -45 2 -3 35 -5 72 -5 90 0 101 10 101 91 l0 64 30 0 c25 0 30
-4 34 -32 3 -18 4 -48 4 -66 -2 -43 11 -54 71 -60 60 -5 90 3 73 20 -20 20
-14 46 10 50 19 2 27 19 54 103 17 55 39 144 49 197 16 86 17 105 5 167 -7 39
-10 74 -7 77 9 9 65 -35 166 -128 73 -68 88 -78 120 -78 21 0 46 7 57 15 10 8
33 15 50 15 18 0 42 9 55 19 l24 20 -65 66 -65 66 -21 -24 c-14 -17 -23 -20
-30 -13 -91 94 -259 226 -289 226 -5 0 -21 9 -35 19 l-25 19 25 6 c229 47 336
90 395 158 20 24 31 44 25 46 -5 2 -10 9 -10 16 0 19 -67 76 -89 76 -12 0 -21
9 -25 25 -4 14 -11 25 -17 25 -11 0 -39 25 -39 35 0 3 -18 25 -40 48 -23 23
-43 52 -47 64 -3 13 -9 23 -14 23 -5 0 -9 7 -9 15 0 9 -7 18 -15 21 -8 4 -15
15 -15 25 0 10 -4 19 -9 19 -9 0 -16 11 -56 87 -10 18 -21 31 -25 28 -9 -6
-22 23 -15 35 3 4 -3 10 -13 12 -15 4 -19 16 -19 62 0 31 -3 59 -7 63 -3 3 -6
15 -6 25 0 10 -4 18 -10 18 -5 0 -10 9 -10 19 0 10 -7 22 -16 25 -8 3 -13 10
-10 14 7 11 -74 52 -102 52 -11 0 -22 5 -24 11 -2 6 -44 11 -104 13 -105 2
-129 9 -120 32 3 9 -1 14 -13 14 -10 0 -30 17 -44 38 -46 65 -119 130 -162
141 -51 14 -50 14 -111 -7z m141 -167 c38 -37 32 -58 -22 -82 -27 -12 -61 -30
-76 -40 -28 -18 -29 -17 -43 1 -26 36 -14 103 25 133 28 22 89 16 116 -12z
m-220 -495 c3 -6 -1 -7 -9 -4 -18 7 -21 14 -7 14 6 0 13 -4 16 -10z m46 -37
c13 -16 12 -17 -3 -4 -10 7 -18 15 -18 17 0 8 8 3 21 -13z m35 -59 c8 -20 13
-38 11 -40 -2 -2 -11 14 -20 36 -19 50 -12 53 9 4z m-120 -59 c5 -22 -21 -85
-30 -73 -2 1 -6 29 -10 61 -6 56 -6 57 14 47 11 -6 23 -22 26 -35z m880 -133
c41 -53 59 -126 44 -180 -15 -57 -50 -95 -112 -123 -47 -21 -68 -24 -173 -24
-104 1 -127 4 -173 24 -99 44 -140 126 -112 226 12 43 81 135 101 135 5 0 15
-15 23 -34 16 -39 55 -69 114 -86 77 -24 179 25 202 95 11 34 13 35 33 22 12
-8 36 -32 53 -55z m9 -461 c10 -33 16 -83 22 -191 5 -93 3 -108 -13 -127 -30
-36 -62 -13 -89 64 -23 62 -24 84 -10 158 17 88 73 148 90 96z"/>
<path d="M1464 1212 c19 -32 220 -41 290 -13 46 18 24 24 -43 10 -57 -11 -136
-8 -220 7 -22 5 -32 3 -27 -4z"/>
<path d="M1962 2351 c-28 -10 -62 -27 -74 -37 -44 -38 -97 -106 -98 -125 0 -8
80 -62 100 -67 22 -6 107 -11 93 -5 -22 8 -14 43 13 68 60 56 154 16 154 -65
0 -26 -7 -47 -19 -59 -22 -22 -20 -26 49 -60 25 -13 55 -32 66 -43 16 -14 24
-16 29 -8 4 7 3 15 -2 19 -6 3 -12 49 -15 101 -3 61 -10 107 -21 130 -26 54
-121 150 -159 160 -44 13 -54 12 -116 -9z"/>
<path d="M9085 2327 c50 -46 65 -55 65 -38 0 10 -53 52 -90 71 -14 7 -4 -7 25
-33z"/>
<path d="M2751 2317 c-16 -67 -15 -77 14 -77 22 0 25 4 25 38 -1 20 -7 48 -14
61 -13 23 -13 22 -25 -22z"/>
<path d="M10243 2354 c-27 -6 -28 -9 -7 -65 8 -24 18 -85 21 -136 l6 -92 43
25 c24 14 65 32 91 39 92 26 168 48 171 51 2 1 -3 15 -11 31 -22 40 -86 102
-132 125 -39 20 -136 32 -182 22z"/>
<path d="M11054 2336 c-64 -30 -117 -76 -139 -122 -9 -20 -15 -37 -13 -39 1
-1 37 -12 79 -23 123 -34 184 -60 230 -100 80 -68 74 -69 75 16 0 50 9 104 23
151 l23 75 -24 18 c-66 51 -174 61 -254 24z"/>
<path d="M3520 2310 c173 -37 259 -87 275 -160 7 -33 13 -36 39 -17 17 13 17
16 2 44 -37 73 -134 123 -270 142 -117 16 -142 11 -46 -9z"/>
<path d="M4838 2323 c6 -2 18 -2 25 0 6 3 1 5 -13 5 -14 0 -19 -2 -12 -5z"/>
<path d="M4725 2313 c-77 -17 -153 -50 -187 -81 -41 -37 -76 -92 -58 -92 5 0
12 11 16 24 14 58 101 107 243 136 62 13 75 18 46 18 -22 0 -49 -2 -60 -5z"/>
<path d="M12775 2176 c-36 -39 -55 -99 -55 -178 0 -30 -4 -58 -9 -63 -6 -6 -3
-25 9 -50 10 -22 19 -35 19 -29 2 18 151 134 228 176 40 22 76 44 79 50 10 15
-55 76 -110 103 -73 36 -121 34 -161 -9z"/>
<path d="M13730 2200 c-63 -18 -168 -100 -155 -120 3 -5 26 -18 50 -30 47 -23
51 -22 120 4 22 8 61 15 88 16 52 0 53 2 33 51 -27 63 -82 95 -136 79z"/>
<path d="M6022 2170 c-12 -19 -27 -53 -33 -75 -20 -72 -60 -75 -123 -7 -50 54
-124 96 -142 82 -6 -6 -14 -7 -18 -3 -4 4 -4 -1 0 -10 3 -10 18 -24 33 -32 67
-34 148 -106 174 -153 48 -88 86 -297 87 -468 0 -80 -3 -96 -24 -127 l-24 -35
29 -12 c21 -9 29 -19 29 -37 0 -71 54 -129 130 -139 38 -5 53 -13 70 -36 31
-42 82 -61 141 -53 54 8 60 2 27 -26 -23 -18 -22 -18 87 -15 61 2 165 9 232
15 70 6 160 7 210 3 48 -4 117 -8 153 -7 54 0 65 3 62 16 -2 14 8 17 60 16 45
-1 71 4 90 16 l26 18 -18 41 c-10 23 -16 47 -13 55 7 17 8 17 -56 -7 -106 -41
-194 -51 -436 -51 -279 -1 -376 13 -512 72 -102 45 -170 102 -217 183 l-29 50
17 65 c34 133 15 293 -50 423 l-24 47 58 31 c31 17 67 33 80 37 12 3 22 9 22
14 0 4 -10 15 -22 24 -13 8 -30 38 -39 68 l-16 52 -21 -35z m1125 -1040 c4
-21 -13 -44 -26 -36 -6 4 -11 18 -11 32 0 19 5 25 17 22 10 -2 19 -10 20 -18z"/>
<path d="M2774 2164 c-23 -8 -52 -26 -64 -39 l-23 -25 56 20 c73 26 162 26
228 0 l52 -19 -23 24 c-27 29 -100 55 -149 54 -20 0 -54 -7 -77 -15z"/>
<path d="M5185 2156 c-27 -12 -69 -44 -93 -69 -23 -26 -51 -47 -62 -47 -11 0
-43 9 -72 20 -61 23 -89 25 -106 8 -17 -17 -15 -28 5 -28 9 0 45 -14 78 -31
l62 -31 -24 -60 c-14 -33 -23 -62 -20 -64 2 -2 16 20 32 48 58 108 102 155
213 224 39 25 72 47 72 50 0 11 -40 2 -85 -20z"/>
<path d="M2520 2135 c-26 -27 -31 -38 -22 -47 9 -9 12 -9 12 2 0 7 11 28 26
47 32 43 27 42 -16 -2z"/>
<path d="M3186 2127 c15 -20 30 -35 31 -33 8 8 -11 36 -34 51 -25 17 -25 17 3
-18z"/>
<path d="M7423 2058 c-8 -19 -1 -39 38 -112 40 -77 48 -86 57 -70 13 24 -2 54
-26 54 -15 1 -15 2 2 15 19 14 18 15 -7 41 -15 14 -29 41 -33 60 -7 40 -17 43
-31 12z"/>
<path d="M15075 2021 c-16 -4 -61 -22 -98 -39 l-68 -32 57 -56 c48 -48 59 -55
73 -45 9 6 31 21 49 32 31 20 32 24 32 85 0 35 -3 64 -7 63 -5 -1 -21 -4 -38
-8z"/>
<path d="M13778 2001 c-51 -17 -177 -92 -201 -120 -13 -16 -31 -55 -41 -87
-29 -98 -36 -106 -30 -31 l6 68 -28 -7 c-72 -16 -120 -64 -131 -127 -8 -54 35
-138 93 -177 50 -35 88 -95 116 -183 23 -74 42 -97 80 -97 49 0 85 26 110 79
l23 50 52 1 52 0 25 -53 c30 -62 90 -127 160 -171 58 -37 163 -81 219 -91 20
-4 37 -10 37 -14 0 -4 -33 -23 -74 -43 -122 -61 -178 -102 -261 -192 -52 -58
-82 -83 -88 -77 -7 7 -7 19 1 36 15 33 16 30 -14 50 -25 16 -27 16 -55 -11
-22 -21 -34 -26 -43 -19 -80 57 -205 157 -209 167 -5 15 2 -86 8 -117 2 -11
18 -28 34 -38 17 -10 68 -53 113 -96 46 -43 94 -84 107 -90 27 -15 84 -7 101
14 7 8 16 12 21 10 21 -14 70 15 148 88 86 80 129 113 135 106 2 -2 -1 -33 -7
-69 -13 -78 0 -175 38 -300 14 -47 30 -107 35 -134 5 -27 15 -53 22 -58 19
-11 106 -10 129 2 14 8 19 22 19 53 0 65 9 87 35 87 28 0 35 -17 35 -80 0 -59
14 -70 87 -70 l48 1 -27 15 c-37 20 -35 30 10 45 48 15 52 23 45 81 -4 34 -1
54 11 72 25 39 20 52 -28 74 -40 19 -47 20 -91 6 -135 -40 -266 15 -294 123
-10 41 -13 186 -4 217 3 12 8 15 15 8 8 -8 26 10 60 59 34 49 55 69 71 70 13
0 4 6 -23 14 -93 29 -133 114 -80 170 27 29 40 31 82 9 45 -23 129 -21 172 4
l36 21 29 -25 c38 -32 45 -56 31 -98 -12 -38 -44 -63 -105 -82 -23 -7 -31 -13
-19 -13 11 -1 33 -14 48 -30 28 -29 29 -29 61 -14 18 9 40 13 49 10 20 -8 36
-48 36 -90 0 -50 10 -74 33 -85 12 -5 63 -48 114 -95 96 -89 125 -103 168 -87
63 24 33 65 -167 226 -65 52 -118 101 -118 109 0 9 -20 25 -45 37 -25 12 -45
25 -45 29 0 4 30 14 66 23 92 23 190 73 243 123 l44 43 -23 20 c-12 10 -32 22
-44 26 -28 9 -103 57 -141 92 -7 6 -18 12 -24 12 -6 0 -11 6 -11 14 0 8 -7 16
-15 20 -13 4 -10 13 15 47 34 47 39 93 15 138 -26 51 -75 55 -130 11 -21 -16
-39 -30 -40 -30 -1 0 -28 12 -59 26 -45 21 -78 27 -159 31 -56 3 -110 9 -119
14 -9 5 -36 9 -60 9 -35 0 -50 -7 -80 -33 -21 -19 -38 -39 -38 -45 0 -7 -7
-12 -15 -12 -9 0 -18 -7 -21 -15 -4 -8 -12 -15 -19 -15 -7 0 -15 -3 -17 -7
-14 -34 -148 -81 -148 -53 0 6 -4 8 -10 5 -6 -4 -10 16 -10 53 0 105 47 207
154 335 24 29 36 51 30 56 -5 5 -38 24 -74 42 -53 27 -78 33 -140 36 -41 1
-87 -1 -102 -6z m125 -102 c21 -5 52 -23 69 -38 l31 -27 -35 -50 c-50 -69 -67
-105 -88 -187 -18 -70 -19 -72 -49 -71 -47 3 -103 36 -135 82 -87 123 -1 291
154 301 8 0 32 -4 53 -10z m447 -1599 c0 -5 -2 -10 -4 -10 -3 0 -8 5 -11 10
-3 6 -1 10 4 10 6 0 11 -4 11 -10z"/>
<path d="M8675 1931 c6 -38 12 -48 22 -38 3 4 -1 22 -11 40 l-17 32 6 -34z"/>
<path d="M5210 1878 c-29 -48 -26 -94 9 -129 37 -37 55 -37 93 1 27 28 30 36
25 76 -6 57 -30 84 -74 84 -27 0 -37 -6 -53 -32z"/>
<path d="M5620 1878 c-24 -39 -25 -57 -6 -103 19 -45 49 -60 86 -45 41 17 56
60 40 113 -19 58 -27 67 -66 67 -28 0 -38 -6 -54 -32z"/>
<path d="M9154 1871 c-58 -36 -70 -137 -23 -187 30 -32 57 -30 109 5 34 23 44
36 47 62 10 97 -63 163 -133 120z"/>
<path d="M9565 1855 c-24 -23 -30 -48 -25 -105 4 -52 86 -103 129 -80 26 13
51 61 51 95 0 37 -25 92 -48 104 -35 19 -81 13 -107 -14z"/>
<path d="M6486 1829 c-56 -66 -22 -182 53 -182 60 0 105 76 87 148 -17 69 -95
88 -140 34z"/>
<path d="M6923 1845 c-47 -33 -48 -141 -2 -177 30 -25 81 -23 106 5 78 86 -13
236 -104 172z"/>
<path d="M13039 1823 c-45 -7 -132 -66 -161 -108 -84 -122 -71 -389 22 -455
36 -26 91 -26 114 -1 9 10 26 46 36 80 26 86 61 141 113 179 63 45 91 93 92
158 0 56 -18 90 -66 126 -25 19 -103 30 -150 21z"/>
<path d="M10392 1799 c-145 -72 -164 -270 -32 -336 24 -13 56 -23 70 -23 82 0
175 66 206 146 59 154 -94 287 -244 213z"/>
<path d="M10915 1806 c-37 -16 -82 -67 -91 -102 -21 -85 24 -184 105 -232 59
-35 146 -37 188 -6 50 37 73 81 73 141 0 145 -150 254 -275 199z"/>
<path d="M3911 1783 c-40 -50 -39 -107 1 -150 41 -44 107 -22 128 43 32 97
-70 182 -129 107z"/>
<path d="M4300 1790 c-39 -39 -38 -114 2 -157 49 -52 128 -10 128 67 0 46 -21
94 -45 104 -31 11 -65 6 -85 -14z m117 -62 c-3 -8 -6 -5 -6 6 -1 11 2 17 5 13
3 -3 4 -12 1 -19z"/>
<path d="M2562 1783 c-41 -16 -56 -129 -22 -163 45 -45 91 -10 98 74 4 45 1
57 -17 75 -21 21 -34 24 -59 14z"/>
<path d="M3094 1765 c-49 -49 -16 -165 47 -165 24 0 49 42 49 80 0 85 -51 130
-96 85z"/>
<path d="M11833 1745 c-28 -19 -47 -78 -39 -118 18 -87 111 -104 151 -27 48
93 -34 200 -112 145z"/>
<path d="M12236 1738 c-57 -49 -37 -167 30 -184 81 -21 130 101 72 179 -23 30
-71 32 -102 5z"/>
<path d="M6680 1689 c-40 -11 -80 -51 -80 -80 0 -35 19 -58 73 -89 69 -39 109
-39 171 3 63 41 77 63 54 81 -19 14 -24 36 -9 36 5 0 12 -6 14 -12 3 -7 6 -8
6 -2 1 16 -40 50 -78 63 -40 13 -102 13 -151 0z"/>
<path d="M9358 1689 c-26 -4 -61 -15 -77 -25 -38 -22 -64 -74 -55 -108 15 -61
140 -135 207 -122 43 8 121 57 143 91 64 98 -58 189 -218 164z"/>
<path d="M2278 1618 c-3 -24 -4 -44 -2 -46 3 -5 84 42 84 49 0 5 -65 39 -74
39 -2 0 -6 -19 -8 -42z"/>
<path d="M3387 1639 l-38 -20 43 -23 c24 -13 44 -22 45 -22 2 1 -1 21 -5 43
l-7 41 -38 -19z"/>
<path d="M7844 1637 c-62 -54 -32 -188 45 -195 61 -6 101 64 80 140 -19 74
-75 98 -125 55z"/>
<path d="M8233 1645 c-28 -20 -48 -83 -39 -127 19 -102 127 -105 154 -4 27 96
-46 179 -115 131z"/>
<path d="M46 1611 c-10 -11 -20 -37 -23 -58 -10 -79 70 -125 116 -67 31 40 24
112 -13 136 -21 14 -63 8 -80 -11z"/>
<path d="M464 1609 c-26 -29 -26 -99 0 -128 47 -51 123 -3 113 72 -3 21 -13
47 -23 58 -23 25 -66 24 -90 -2z"/>
<path d="M2760 1590 c-94 -20 -187 -105 -211 -193 -13 -50 -5 -162 16 -227 8
-25 32 -67 53 -94 121 -160 394 -144 492 27 35 61 39 91 12 83 -37 -12 -92 64
-92 125 0 21 -9 42 -25 59 -14 14 -43 62 -64 105 -30 60 -37 83 -30 97 8 15 6
18 -13 18 -13 0 -39 2 -58 4 -19 3 -55 1 -80 -4z m190 -305 c0 -8 -4 -15 -10
-15 -5 0 -10 7 -10 15 0 8 5 15 10 15 6 0 10 -7 10 -15z"/>
<path d="M13228 1534 c-23 -10 -41 -26 -48 -45 -11 -27 -10 -32 11 -55 13 -14
43 -30 66 -37 l43 -11 0 -57 c0 -55 -1 -57 -32 -68 -17 -6 -29 -13 -26 -16 3
-3 18 0 32 7 21 9 34 9 59 0 17 -6 33 -10 35 -7 3 3 -9 10 -26 16 -31 11 -32
13 -32 69 l0 58 37 7 c50 9 96 56 84 86 -21 57 -128 85 -203 53z"/>
<path d="M10667 1531 c-83 -17 -117 -73 -77 -124 51 -64 148 -84 226 -47 52
25 76 60 72 103 -2 25 -10 36 -38 49 -43 20 -131 29 -183 19z"/>
<path d="M6261 1492 c-14 -4 -27 -14 -29 -21 -4 -11 5 -12 44 -5 27 5 88 9
137 9 63 -1 82 2 70 9 -22 12 -188 18 -222 8z"/>
<path d="M7053 1489 c-18 -5 -33 -11 -33 -13 0 -2 33 -1 74 2 42 2 96 -1 125
-8 54 -13 73 -8 53 12 -15 15 -176 21 -219 7z"/>
<path d="M3970 1420 c-23 -23 -27 -60 -6 -60 7 0 19 7 26 15 19 22 46 18 69
-11 23 -29 41 -24 41 10 0 56 -89 87 -130 46z"/>
<path d="M4240 1416 c-14 -16 -20 -31 -16 -42 6 -15 8 -16 24 0 32 28 81 15
94 -26 7 -19 28 1 28 28 0 60 -85 86 -130 40z"/>
<path d="M260 1421 c0 -5 5 -13 10 -16 6 -3 10 -2 10 4 0 5 -4 13 -10 16 -5 3
-10 2 -10 -4z"/>
<path d="M325 1420 c-3 -5 1 -10 10 -10 9 0 13 5 10 10 -3 6 -8 10 -10 10 -2
0 -7 -4 -10 -10z"/>
<path d="M6353 1419 c-37 -11 -103 -72 -103 -94 0 -23 14 -18 38 15 28 38 91
70 137 70 19 0 35 5 35 10 0 12 -63 12 -107 -1z"/>
<path d="M7060 1423 c0 -5 15 -9 34 -10 45 -2 92 -27 131 -70 22 -24 35 -32
40 -24 10 18 -68 88 -112 100 -44 13 -93 14 -93 4z"/>
<path d="M11384 1415 c-9 -22 46 -115 68 -115 37 0 11 97 -31 120 -26 13 -31
13 -37 -5z"/>
<path d="M11735 1423 c-11 -2 -30 -6 -42 -9 -37 -7 -28 -27 10 -20 17 3 66 7
107 8 l75 1 -40 13 c-41 13 -74 15 -110 7z"/>
<path d="M12332 1420 c-50 -12 -47 -17 11 -16 28 1 73 -3 100 -7 29 -5 47 -5
47 2 0 18 -111 33 -158 21z"/>
<path d="M12642 1373 c14 -51 44 -110 81 -155 39 -48 50 -49 25 0 -15 29 -18
52 -16 104 l4 68 -36 6 c-19 3 -43 8 -52 10 -15 4 -15 1 -6 -33z"/>
<path d="M2372 1370 c-23 -11 -42 -23 -42 -27 1 -11 48 -68 53 -63 8 11 39
101 35 105 -2 2 -22 -5 -46 -15z"/>
<path d="M3313 1329 l22 -51 22 29 c30 37 29 41 -12 59 -52 21 -55 18 -32 -37z"/>
<path d="M6401 1357 c-19 -7 -42 -23 -52 -37 -22 -31 -35 -80 -21 -80 5 0 13
12 17 28 7 30 52 82 71 82 7 0 16 5 19 10 7 12 9 12 -34 -3z"/>
<path d="M11746 1347 c-41 -23 -65 -51 -54 -63 4 -3 21 6 38 22 16 16 51 36
78 46 l47 16 -35 1 c-19 0 -53 -9 -74 -22z"/>
<path d="M12365 1350 c28 -11 60 -32 72 -47 25 -30 41 -26 23 6 -14 27 -81 61
-117 61 -23 -1 -20 -4 22 -20z"/>
<path d="M7106 1350 c27 -11 64 -57 64 -81 0 -10 5 -21 12 -25 8 -5 9 2 5 27
-8 37 -57 89 -85 88 -14 0 -13 -2 4 -9z"/>
<path d="M8020 1320 c0 -15 58 -39 81 -33 10 3 23 11 29 18 8 10 -1 13 -41 14
-28 0 -55 3 -60 6 -5 4 -9 1 -9 -5z"/>
<path d="M11793 1310 c-32 -13 -69 -90 -43 -90 6 0 10 7 10 16 0 9 15 31 34
50 35 35 35 39 -1 24z"/>
<path d="M12357 1301 c20 -12 34 -31 38 -50 4 -17 10 -29 15 -26 16 10 -12 66
-41 80 -41 22 -50 18 -12 -4z"/>
<path d="M8932 1286 c-29 -6 -50 -15 -46 -19 4 -4 -2 -7 -14 -7 -12 0 -22 -4
-22 -10 0 -5 -8 -7 -17 -3 -10 3 -15 3 -11 -2 4 -4 1 -13 -8 -19 -14 -10 -13
-15 6 -39 27 -34 165 -102 245 -120 l59 -13 -78 -44 c-64 -35 -76 -45 -64 -54
35 -26 28 -44 -43 -117 l-70 -71 27 -35 26 -35 37 34 c56 54 121 101 128 94 4
-3 1 -35 -5 -70 -12 -63 -17 -174 -7 -164 3 2 7 29 11 59 3 30 12 91 20 137 7
46 13 86 13 90 -7 44 18 83 49 76 12 -4 27 8 49 40 l33 46 162 0 c148 0 163
-2 183 -20 19 -18 26 -19 55 -9 31 11 35 10 56 -14 l22 -26 16 25 c16 23 16
25 -9 36 -35 16 -31 25 13 33 20 4 52 14 71 23 l34 16 -22 17 c-32 26 -113 18
-183 -19 -109 -57 -284 -66 -415 -21 -74 24 -149 87 -178 148 -11 22 -29 42
-40 45 -17 5 -18 7 -5 16 12 8 11 9 -5 8 -11 0 -44 -6 -73 -12z"/>
<path d="M7342 1252 c-30 -25 -32 -29 -18 -41 9 -7 16 -24 16 -37 0 -17 6 -24
20 -24 23 0 90 26 90 35 0 8 -64 94 -70 94 -3 0 -20 -12 -38 -27z"/>
<path d="M9378 1267 c-38 -15 -35 -29 3 -15 22 7 41 8 65 0 19 -5 34 -8 34 -6
0 3 -71 35 -74 33 0 -1 -13 -6 -28 -12z"/>
<path d="M10583 1217 c26 -21 138 -40 189 -32 65 10 118 27 118 38 0 5 -6 7
-14 4 -8 -3 -42 -11 -75 -18 -59 -11 -152 -4 -217 17 -18 5 -18 5 -1 -9z"/>
<path d="M2486 1203 c-5 -11 1 -23 16 -34 30 -23 33 -18 13 20 -18 36 -21 37
-29 14z"/>
<path d="M3198 1179 c-17 -28 -17 -29 2 -19 25 13 34 30 24 40 -5 5 -17 -4
-26 -21z"/>
<path d="M11604 1163 c16 -8 45 -22 64 -30 49 -20 30 4 -22 28 -50 23 -83 25
-42 2z"/>
<path d="M14458 1173 c6 -2 18 -2 25 0 6 3 1 5 -13 5 -14 0 -19 -2 -12 -5z"/>
<path d="M14548 1173 c6 -2 18 -2 25 0 6 3 1 5 -13 5 -14 0 -19 -2 -12 -5z"/>
<path d="M7996 1160 c20 -20 116 -24 154 -7 l35 16 -35 -7 c-46 -8 -87 -8
-130 1 -24 5 -31 4 -24 -3z"/>
<path d="M3956 1112 c-11 -18 94 -25 210 -14 l109 9 -126 2 c-70 0 -140 4
-157 7 -16 3 -32 1 -36 -4z"/>
<path d="M2 1086 c3 -4 30 -13 60 -20 l53 -13 -57 -28 -58 -29 0 -84 c0 -75 2
-83 15 -72 14 12 15 3 9 -81 -5 -82 -3 -107 21 -198 14 -58 33 -120 41 -139 8
-19 14 -49 14 -66 0 -45 16 -56 81 -56 68 0 91 17 88 64 -4 65 0 76 26 76 26
0 30 -11 26 -76 -3 -47 20 -64 88 -64 64 0 81 11 81 52 0 15 11 60 24 100 46
136 61 237 50 319 -6 41 -10 76 -8 78 4 5 80 -56 156 -126 62 -57 97 -71 133
-55 71 33 65 105 -13 170 -65 54 -171 122 -271 172 -63 31 -81 44 -70 51 9 7
-3 8 -36 3 -27 -4 -51 -8 -53 -9 -2 -2 10 -22 27 -46 64 -88 96 -275 59 -344
-53 -99 -185 -135 -296 -79 -61 30 -90 73 -98 141 -11 90 33 246 85 301 l27
30 -88 11 c-48 6 -95 14 -105 18 -10 3 -15 3 -11 -1z"/>
<path d="M11840 1081 c17 -11 16 -13 -25 -34 l-30 -17 30 1 c17 1 75 -1 130
-5 81 -5 125 -2 235 17 l135 23 -190 7 c-104 4 -215 10 -245 13 -39 4 -51 2
-40 -5z"/>
<path d="M10422 1030 c-100 -53 -218 -127 -280 -177 l-43 -35 36 -39 c33 -37
40 -56 35 -106 -1 -13 1 -23 5 -23 17 0 64 33 100 70 67 70 166 145 174 132 5
-9 31 1 85 32 92 53 159 71 233 63 55 -6 159 -48 215 -88 24 -17 32 -19 38 -9
10 15 54 -18 178 -132 59 -55 79 -68 105 -68 46 0 62 14 59 50 -2 16 3 43 11
60 15 29 14 30 -29 72 -56 55 -163 125 -286 188 l-96 50 -226 2 -226 3 -88
-45z"/>
<path d="M5201 1024 c-13 -29 -1 -38 27 -18 27 19 28 30 3 37 -13 3 -22 -3
-30 -19z"/>
<path d="M5882 1033 c2 -10 17 -24 33 -32 17 -7 40 -23 52 -34 27 -24 63 -17
42 9 -14 17 -108 74 -122 74 -5 0 -7 -8 -5 -17z"/>
<path d="M13086 1031 c-4 -6 -42 -29 -85 -51 -65 -34 -81 -47 -96 -80 -10 -22
-35 -56 -57 -76 l-40 -36 -27 26 -28 26 -48 -42 c-63 -55 -80 -96 -61 -142 16
-38 69 -62 113 -51 14 3 60 39 102 78 88 84 149 132 157 124 3 -3 0 -39 -7
-80 -11 -65 -10 -87 5 -162 9 -48 30 -128 46 -178 16 -51 30 -110 32 -132 3
-37 6 -41 40 -49 23 -6 56 -6 85 0 l48 9 5 70 5 70 30 0 30 0 3 -68 c3 -62 5
-69 28 -77 32 -13 96 -13 127 -1 21 8 26 17 28 60 3 43 2 50 -12 46 -21 -7
-30 45 -16 92 12 39 10 42 -33 47 -19 2 -39 11 -45 19 -9 12 -24 14 -71 10
-87 -8 -162 16 -205 65 -96 110 -98 113 -92 237 6 127 14 149 51 142 22 -4 34
2 69 39 l43 44 96 0 c80 0 100 -3 121 -19 23 -19 26 -19 59 -3 28 13 39 14 54
4 23 -14 40 -16 40 -4 0 5 -17 16 -37 25 -29 12 -77 15 -208 16 -93 0 -186 3
-206 6 -22 4 -40 2 -43 -4z"/>
<path d="M4974 994 c-32 -19 -66 -42 -74 -51 -13 -13 -11 -14 20 -8 50 10 106
44 119 71 14 32 5 30 -65 -12z"/>
<path d="M5730 990 c0 -24 21 -70 32 -70 11 0 10 33 -2 64 -11 31 -30 34 -30
6z"/>
<path d="M9730 894 c0 -41 4 -64 11 -64 10 0 88 -57 109 -80 3 -3 17 -15 31
-28 l27 -23 22 31 c26 37 25 39 -70 115 -36 29 -80 66 -97 83 l-33 30 0 -64z"/>
<path d="M3837 892 c-25 -27 -21 -35 8 -16 25 16 33 34 17 34 -5 0 -16 -8 -25
-18z"/>
<path d="M6383 865 c-22 -25 -39 -45 -37 -45 14 0 94 64 94 76 0 24 -14 16
-57 -31z"/>
<path d="M4450 895 c0 -2 10 -10 23 -16 20 -11 21 -11 8 4 -13 16 -31 23 -31
12z"/>
<path d="M7086 891 c-3 -5 8 -20 26 -32 l33 -23 -25 30 c-14 16 -26 30 -26 32
-1 2 -5 -1 -8 -7z"/>
<path d="M5156 866 c-3 -14 -9 -54 -12 -88 l-5 -63 26 40 c19 30 25 51 23 84
-3 50 -22 65 -32 27z"/>
<path d="M11679 803 c-119 -123 -128 -139 -29 -54 47 41 95 78 108 84 21 10
33 57 14 57 -4 0 -46 -39 -93 -87z"/>
<path d="M12390 862 c0 -11 15 -30 38 -44 20 -14 73 -58 117 -99 l80 -74 -66
72 c-37 40 -89 93 -118 119 -42 37 -51 42 -51 26z"/>
<path d="M4756 831 c-46 -51 -35 -135 23 -165 41 -22 77 -20 117 5 l34 21 -73
79 c-39 43 -75 79 -78 79 -3 0 -13 -8 -23 -19z"/>
<path d="M6117 772 l-78 -78 26 -24 c71 -67 206 12 175 103 -6 18 -18 42 -28
55 l-17 22 -78 -78z"/>
<path d="M3392 768 l-64 -62 24 -18 c57 -43 152 -5 150 61 -1 32 -25 81 -40
81 -4 0 -36 -28 -70 -62z"/>
<path d="M5807 814 c-8 -9 -10 -136 -1 -158 12 -32 24 -3 23 57 -1 69 -10 112
-22 101z"/>
<path d="M2573 723 c-7 -3 -13 -12 -13 -21 0 -15 2 -15 17 1 18 18 16 27 -4
20z"/>
<path d="M3136 705 c4 -8 8 -15 10 -15 2 0 4 7 4 15 0 8 -4 15 -10 15 -5 0 -7
-7 -4 -15z"/>
<path d="M5150 638 c0 -65 17 -114 46 -133 14 -9 28 -14 31 -11 3 2 -2 26 -10
53 -8 26 -20 67 -26 91 -7 25 -18 42 -26 42 -11 0 -15 -12 -15 -42z"/>
<path d="M5756 567 c-10 -15 -16 -31 -12 -34 11 -11 38 23 34 43 -3 17 -6 15
-22 -9z"/>
<path d="M10927 483 c-43 -29 -98 -59 -121 -65 l-42 -11 4 -66 c5 -80 16 -91
90 -91 70 0 92 12 92 52 0 17 14 74 30 126 17 52 29 98 28 102 -2 3 -38 -18
-81 -47z"/>
<path d="M10466 494 c4 -16 17 -59 30 -95 13 -37 24 -80 24 -97 0 -40 22 -52
92 -52 75 0 86 11 90 92 l3 66 -37 5 c-34 5 -126 51 -186 94 -23 16 -23 16
-16 -13z"/>
<path d="M9210 450 c0 -7 -7 -10 -15 -6 -8 3 -15 1 -15 -4 0 -6 -7 -10 -15
-10 -8 0 -15 -4 -15 -10 0 -5 5 -10 10 -10 6 0 10 -7 10 -15 0 -9 7 -18 15
-21 8 -4 15 -12 15 -20 0 -8 5 -14 10 -14 18 0 11 -32 -11 -51 l-22 -19 27
-10 c53 -20 82 -10 65 21 -8 16 -6 19 15 19 14 0 31 -9 40 -21 18 -26 50 -21
54 9 3 16 10 22 28 22 13 0 27 0 32 1 4 0 9 -10 12 -23 6 -23 33 -35 86 -37
31 -1 32 -1 32 49 0 50 0 50 -33 50 -18 0 -44 9 -58 20 -18 14 -40 20 -76 20
-55 0 -141 28 -172 56 -13 12 -19 13 -19 4z"/>
<path d="M2796 349 c-10 -6 -47 -9 -82 -7 -60 4 -64 3 -64 -17 0 -34 20 -45
86 -45 69 0 94 15 94 56 0 26 -6 29 -34 13z"/>
<path d="M2890 331 c0 -39 23 -51 92 -51 62 0 74 6 83 40 l6 26 -69 -4 c-41
-2 -78 1 -91 7 -19 11 -21 9 -21 -18z"/>
<path d="M6713 315 c0 -27 2 -38 4 -22 2 15 2 37 0 50 -2 12 -4 0 -4 -28z"/>
<path d="M6798 318 c5 -71 10 -77 11 -15 0 31 -2 57 -7 57 -4 0 -6 -19 -4 -42z"/>
<path d="M12018 353 c7 -3 12 -25 12 -61 0 -68 5 -65 13 8 5 52 4 56 -16 57
-12 0 -16 -1 -9 -4z"/>
<path d="M12117 353 c-2 -5 -1 -39 3 -78 6 -70 6 -70 13 -25 14 94 14 110 1
110 -7 0 -15 -3 -17 -7z"/>
<path d="M5410 278 c-14 -5 -57 -8 -97 -5 l-73 5 0 -28 c0 -41 28 -53 117 -48
80 4 93 12 93 61 0 30 -3 31 -40 15z"/>
<path d="M5520 258 c0 -50 14 -58 98 -58 87 0 112 11 112 48 l0 27 -87 0 c-49
0 -96 4 -105 9 -15 7 -18 3 -18 -26z"/>
</g>
</svg>
