<svg width="77" height="69" viewBox="0 0 77 69" fill="none" xmlns="http://www.w3.org/2000/svg">
<path fill-rule="evenodd" clip-rule="evenodd" d="M53.0346 14.7359C53.9743 15.2171 53.9743 15.9972 53.0346 16.4784L40.2013 23.0499C39.2616 23.531 37.7381 23.531 36.7984 23.0499L23.965 16.4784C23.0253 15.9972 23.0253 15.2171 23.965 14.7359C24.9047 14.2547 26.4283 14.2547 27.368 14.7359L38.4998 20.4361L49.6317 14.7359C50.5714 14.2547 52.0949 14.2547 53.0346 14.7359Z" fill="white"/>
<path fill-rule="evenodd" clip-rule="evenodd" d="M53.0346 29.5215C53.9743 30.0027 53.9743 30.7829 53.0346 31.2641L40.2013 37.8355C39.2616 38.3167 37.7381 38.3167 36.7984 37.8355L23.965 31.2641C23.0253 30.7829 23.0253 30.0027 23.965 29.5215C24.9047 29.0403 26.4283 29.0403 27.368 29.5215L38.4998 35.2217L49.6317 29.5215C50.5714 29.0403 52.0949 29.0403 53.0346 29.5215Z" fill="white"/>
<path fill-rule="evenodd" clip-rule="evenodd" d="M53.0346 44.3072C53.9743 44.7884 53.9743 45.5685 53.0346 46.0497L40.2013 52.6211C39.2616 53.1023 37.7381 53.1023 36.7984 52.6211L23.965 46.0497C23.0253 45.5685 23.0253 44.7884 23.965 44.3072C24.9047 43.826 26.4283 43.826 27.368 44.3072L38.4998 50.0074L49.6317 44.3072C50.5714 43.826 52.0949 43.826 53.0346 44.3072Z" fill="white"/>
</svg>
