<svg width="18" height="18" viewBox="0 0 18 18" fill="none" xmlns="http://www.w3.org/2000/svg">
<g clip-path="url(#clip0_1153_209)">
<path d="M7.93628 0H10.0563C11.8763 0.10125 13.7375 0.265 15.44 0.96375C16.325 1.33625 17.2475 1.9875 17.41 3.0025C17.4613 3.6525 17.5175 4.36125 17.1838 4.95125C17.0063 5.29625 16.715 5.55875 16.4313 5.815C16.0788 8.9975 15.7925 12.1887 15.4613 15.3737C15.4075 16.1637 14.7863 16.775 14.11 17.1063C12.8425 17.7313 11.41 17.8662 10.0238 18H8.19378C6.79753 17.9125 5.36753 17.7588 4.07753 17.1838C3.34128 16.8563 2.60253 16.2462 2.54253 15.3862C2.21003 12.1975 1.92128 9.0025 1.56878 5.815C1.28503 5.55875 0.992532 5.29625 0.815032 4.95125C0.487532 4.35875 0.527532 3.64625 0.590032 2.995C0.757532 1.9825 1.68003 1.33375 2.56378 0.9625C4.26253 0.265 6.12128 0.10125 7.93628 0V0ZM3.95253 1.67C3.21003 1.88375 2.39878 2.13 1.89253 2.75125C1.63753 3.045 1.69253 3.445 1.69003 3.80375C1.60128 4.42125 2.11753 4.855 2.58878 5.14C2.62378 5.2625 2.65878 5.385 2.69628 5.5075C2.98878 8.71875 3.33253 11.93 3.64753 15.14C3.64503 15.7125 4.20378 16.025 4.66378 16.2213C5.88128 16.7063 7.20753 16.8237 8.50503 16.8662C10.005 16.8812 11.5325 16.8213 12.9738 16.3638C13.405 16.2088 13.8625 16.035 14.1725 15.68C14.37 15.4638 14.3363 15.1488 14.385 14.88C14.6775 11.75 15.0275 8.6225 15.305 5.4925C15.3413 5.37625 15.3763 5.25875 15.4113 5.14125C15.8825 4.855 16.4 4.42 16.31 3.8025C16.3075 3.44625 16.3613 3.04875 16.11 2.75625C15.6263 2.1525 14.8488 1.905 14.135 1.69375C12.585 1.27375 10.975 1.1725 9.37753 1.11875C7.55878 1.135 5.72128 1.20875 3.95253 1.67V1.67Z" fill="black"/>
<path d="M3.95251 1.67039C5.72126 1.20914 7.55876 1.13539 9.37751 1.11914C10.975 1.17289 12.585 1.27414 14.135 1.69414C14.8488 1.90539 15.6263 2.15289 16.11 2.75664C16.3613 3.04914 16.3075 3.44664 16.31 3.80289C15.4975 4.81289 14.1588 5.08914 12.95 5.31664C10.3425 5.73289 7.66251 5.73414 5.05376 5.31664C3.84501 5.09039 2.50626 4.81414 1.69001 3.80414C1.69251 3.44539 1.63751 3.04539 1.89251 2.75164C2.39876 2.13039 3.21001 1.88414 3.95251 1.67039V1.67039ZM4.36626 2.72914C3.86251 2.85914 3.34876 3.00289 2.90876 3.29039C2.83501 3.52039 3.12501 3.56164 3.26001 3.67289L3.28376 3.66289C3.76001 3.86414 4.25626 4.02414 4.76876 4.09914L4.70376 3.99539C5.17376 4.24664 5.76251 4.38914 6.28376 4.25039L6.21751 4.31539C6.98127 4.45539 7.77501 4.51164 8.54876 4.43289C8.87126 4.54539 9.23502 4.53664 9.54127 4.37664L9.45626 4.46039C10.2325 4.47539 11.02 4.47164 11.7838 4.31539L11.7163 4.25039C12.2363 4.38789 12.83 4.25164 13.2975 3.99414L13.21 4.08914C13.73 4.04164 14.2263 3.86414 14.705 3.66789L14.7388 3.68289C14.8863 3.58039 15.035 3.47664 15.1825 3.37414C14.795 3.06789 14.32 2.91289 13.8513 2.78539C12.8 2.50914 11.7163 2.37289 10.6338 2.30414C8.54002 2.22414 6.41501 2.23414 4.36626 2.72914V2.72914Z" fill="#A0AEB2"/>
<path d="M2.74004 5.2327C3.09129 5.3552 3.44129 5.48645 3.78629 5.6277C4.39629 6.2427 5.00629 6.8602 5.62504 7.4677C6.07004 7.02645 6.52504 6.59645 6.93754 6.12395C7.20254 6.1477 7.46754 6.1702 7.73379 6.18145C8.13879 6.6277 8.57129 7.0452 9.00004 7.4677C9.42879 7.0452 9.86129 6.6277 10.2663 6.18145C10.5313 6.1702 10.7963 6.1477 11.0613 6.12395C11.475 6.5952 11.93 7.02645 12.375 7.4677C12.9925 6.86145 13.6013 6.2452 14.2113 5.6302C14.5575 5.4877 14.9075 5.3552 15.2613 5.23145C15.2725 5.2977 15.2938 5.4277 15.305 5.4927C15.0275 8.6227 14.6775 11.7502 14.385 14.8802C14.3363 15.1489 14.37 15.4639 14.1725 15.6802C13.8625 16.0352 13.405 16.2089 12.9738 16.3639C11.5325 16.8214 10.005 16.8814 8.50504 16.8664C7.20754 16.8239 5.88129 16.7064 4.66379 16.2214C4.20379 16.0252 3.64504 15.7127 3.64754 15.1402C3.33254 11.9302 2.98879 8.71895 2.69629 5.5077C2.70629 5.43895 2.72879 5.30145 2.74004 5.2327V5.2327ZM3.31129 5.9702C3.38379 6.9127 3.50004 7.8502 3.58254 8.7927C3.69004 8.9077 3.79754 9.0227 3.90504 9.13895C4.38879 8.7702 4.77879 8.2952 5.21879 7.8752C4.58629 7.23645 3.95254 6.6002 3.31129 5.9702ZM12.7813 7.8752C13.1975 8.3002 13.6225 8.7152 14.0388 9.1402C14.17 9.03145 14.3025 8.92395 14.4225 8.8027C14.4938 7.85645 14.6213 6.91645 14.6888 5.9702C14.0475 6.6002 13.4138 7.2377 12.7813 7.8752V7.8752ZM7.29004 6.61145C6.87129 7.03395 6.44754 7.4502 6.03129 7.8752C6.44629 8.29895 6.87004 8.71395 7.28629 9.1377C7.76629 8.7652 8.15629 8.29395 8.59379 7.8752C8.15879 7.45395 7.76254 6.99145 7.29004 6.61145ZM10.645 6.65395C10.2088 7.0352 9.82129 7.4702 9.40629 7.8752C9.82129 8.29895 10.245 8.71395 10.6613 9.1377C11.1388 8.76395 11.5313 8.2952 11.9688 7.8752C11.5538 7.46895 11.1625 7.0352 10.7275 6.64895L10.645 6.65395ZM4.36254 9.5902C4.78629 10.0052 5.20129 10.4289 5.62504 10.8439C6.04629 10.4102 6.50629 10.0114 6.89004 9.5427C6.46879 9.12145 6.05004 8.69895 5.62504 8.28145C5.20629 8.71895 4.73504 9.10895 4.36254 9.5902ZM8.00879 9.26395C7.93504 9.37395 7.75004 9.4527 7.77629 9.6052C8.16004 10.0402 8.59379 10.4289 9.00004 10.8439C9.42004 10.4077 9.88754 10.0139 10.2625 9.5377C9.84004 9.12145 9.42379 8.69645 9.00004 8.28145C8.66754 8.6077 8.34129 8.9377 8.00879 9.26395ZM11.1113 9.58645C11.5338 10.0039 11.95 10.4277 12.375 10.8439C12.7963 10.4102 13.2563 10.0114 13.64 9.54145C13.2188 9.12145 12.8 8.69895 12.375 8.28145C11.955 8.7177 11.4888 9.11145 11.1113 9.58645ZM3.89754 9.97895C3.85254 10.0402 3.76254 10.1639 3.71754 10.2252C3.81754 10.9839 3.87129 11.7477 3.96379 12.5077C4.38379 12.0902 4.80379 11.6727 5.21879 11.2502C4.77754 10.8264 4.38254 10.3527 3.89754 9.97895ZM6.03129 11.2502C6.46504 11.6714 6.86379 12.1314 7.33379 12.5152C7.75379 12.0927 8.17754 11.6752 8.59379 11.2502C8.17629 10.8252 7.75379 10.4064 7.33254 9.9852C6.86254 10.3677 6.46504 10.8289 6.03129 11.2502ZM10.6638 9.98645C10.2463 10.4089 9.82254 10.8252 9.40629 11.2502C9.82129 11.6564 10.2125 12.0902 10.6463 12.4764L10.7313 12.4714C11.1663 12.0889 11.5538 11.6552 11.9688 11.2502C11.5325 10.8302 11.1388 10.3639 10.6638 9.98645V9.98645ZM14.0363 9.98645C13.6225 10.4114 13.1963 10.8252 12.7813 11.2502C13.1963 11.6714 13.615 12.0902 14.0375 12.5064C14.12 11.7927 14.185 11.0789 14.2638 10.3652C14.3463 10.1789 14.1513 10.0802 14.0363 9.98645ZM4.36254 12.9139C4.68504 13.3252 5.07754 13.6739 5.45379 14.0339C5.46254 14.3064 5.95629 14.1364 5.84879 13.9139L5.95129 13.9214C6.24754 13.5702 6.61254 13.2827 6.88754 12.9127C6.46504 12.4952 6.04879 12.0714 5.62504 11.6564C5.20129 12.0727 4.78379 12.4964 4.36254 12.9139ZM7.73879 12.9652C7.92879 13.1539 8.11879 13.3427 8.30879 13.5314C8.53754 13.7614 8.76754 13.9914 9.00004 14.2189C9.23129 13.9914 9.46254 13.7627 9.69004 13.5314C9.85629 13.3214 10.1863 13.1614 10.22 12.8939C9.84004 12.4564 9.40379 12.0714 9.00004 11.6564C8.58129 12.0952 8.10879 12.4839 7.73879 12.9652V12.9652ZM11.3225 12.7014C11.245 12.7914 11.0488 12.9264 11.2038 13.0452C11.4788 13.3439 11.7838 13.6139 12.05 13.9227L12.1488 13.9152C12.0475 14.1414 12.5438 14.3052 12.5463 14.0302C12.9275 13.6914 13.275 13.3164 13.6388 12.9602C13.2575 12.4889 12.7963 12.0902 12.375 11.6564C12.0225 12.0039 11.6738 12.3539 11.3225 12.7014V12.7014ZM7.30129 13.3977C6.85129 13.7789 6.44629 14.2077 6.03129 14.6252C6.46879 15.0439 6.86129 15.5139 7.33879 15.8889C7.75379 15.4627 8.17879 15.0489 8.59504 14.6252C8.16629 14.2127 7.78254 13.7502 7.30129 13.3977V13.3977ZM10.6638 13.3964C10.2238 13.7839 9.82004 14.2102 9.40629 14.6252C9.73254 14.9577 10.0638 15.2839 10.39 15.6177C10.5 15.6939 10.5763 15.8714 10.73 15.8502C11.1625 15.4627 11.5538 15.0314 11.9688 14.6252C11.5413 14.2077 11.15 13.7489 10.6638 13.3964ZM4.06254 13.4714C4.09004 13.9339 4.15129 14.3952 4.18004 14.8589C4.18254 15.0852 4.20379 15.3264 4.45629 15.3977C4.70754 15.1364 4.96754 14.8827 5.22004 14.6239C5.07254 14.4764 4.92504 14.3302 4.77629 14.1839C4.54129 13.9427 4.30629 13.7027 4.06254 13.4714ZM13.2238 14.1839C13.0763 14.3302 12.9275 14.4764 12.78 14.6239C13.0575 14.9089 13.3363 15.1914 13.63 15.4602C13.7438 15.2802 13.8238 15.0789 13.8225 14.8627C13.85 14.3977 13.9113 13.9352 13.9388 13.4702C13.695 13.7027 13.4588 13.9427 13.2238 14.1839V14.1839ZM4.98004 15.7402C5.54629 15.9202 6.12254 16.0939 6.72004 16.1202C6.35629 15.7564 5.99129 15.3939 5.62629 15.0327C5.39379 15.2514 5.15254 15.4664 4.98004 15.7402V15.7402ZM7.76629 16.2727C8.58754 16.3202 9.41254 16.3202 10.2338 16.2727C9.83129 15.8502 9.41379 15.4414 9.00004 15.0314C8.58629 15.4414 8.16879 15.8502 7.76629 16.2727ZM11.2788 16.1227C11.89 16.0964 12.475 15.9114 13.0563 15.7377C12.84 15.4914 12.6125 15.2552 12.375 15.0314C12.0088 15.3939 11.6438 15.7577 11.2788 16.1227Z" fill="#A0AEB2"/>
<path d="M4.3663 2.72897C6.41505 2.23397 8.54005 2.22397 10.6338 2.30397C11.7163 2.37272 12.8 2.50897 13.8513 2.78522C14.32 2.91272 14.795 3.06772 15.1825 3.37397C15.035 3.47647 14.8863 3.58022 14.7388 3.68272L14.705 3.66772C14.4488 3.55147 14.1875 3.44397 13.9163 3.36397C13.6988 3.30522 13.4775 3.25647 13.2575 3.20897C12.5888 3.06397 11.91 2.96772 11.2275 2.92897C10.8763 2.90022 10.5125 2.79022 10.1688 2.91772C9.40005 2.77272 8.6038 2.76397 7.8363 2.92147C7.49255 2.78647 7.1263 2.90147 6.7738 2.92897C6.09005 2.96772 5.4113 3.06397 4.74255 3.20897C4.52255 3.25522 4.30255 3.30647 4.08505 3.36522C3.8113 3.44522 3.54505 3.55022 3.2838 3.66272L3.26005 3.67272C3.12505 3.56147 2.83505 3.52022 2.9088 3.29022C3.3488 3.00272 3.86255 2.85897 4.3663 2.72897V2.72897Z" fill="#69797E"/>
<path d="M1.69021 3.80398C2.50646 4.81398 3.84521 5.09023 5.05396 5.31648C7.66271 5.73398 10.3427 5.73273 12.9502 5.31648C14.159 5.08898 15.4977 4.81273 16.3102 3.80273C16.4002 4.42023 15.8827 4.85523 15.4115 5.14148C15.3765 5.25898 15.3415 5.37648 15.3052 5.49273C15.294 5.42773 15.2727 5.29773 15.2615 5.23148C14.9077 5.35523 14.5577 5.48773 14.2115 5.63023C13.1715 5.85648 12.1202 6.02273 11.0615 6.12398C10.7965 6.14773 10.5315 6.17023 10.2665 6.18148C9.42271 6.18898 8.57771 6.18898 7.73396 6.18148C7.46771 6.17023 7.20271 6.14773 6.93771 6.12398C5.87771 6.02148 4.82521 5.85773 3.78646 5.62773C3.44146 5.48648 3.09146 5.35523 2.74021 5.23273C2.72896 5.30148 2.70646 5.43898 2.69646 5.50773C2.65896 5.38523 2.62396 5.26273 2.58896 5.14023C2.11771 4.85523 1.60146 4.42148 1.69021 3.80398V3.80398Z" fill="#69797E"/>
<path d="M4.74268 3.20871C5.41143 3.06371 6.09018 2.96746 6.77393 2.92871C6.40393 3.32996 6.01268 3.70996 5.62518 4.09371C5.32768 3.80121 5.03268 3.50746 4.74268 3.20871Z" fill="#4A5459"/>
<path d="M7.83643 2.92098C8.60393 2.76348 9.40018 2.77223 10.1689 2.91723C9.78393 3.31348 9.39643 3.70723 9.00018 4.09348C8.60643 3.70848 8.21893 3.31598 7.83643 2.92098V2.92098Z" fill="#4A5459"/>
<path d="M11.2274 2.92871C11.9099 2.96746 12.5887 3.06371 13.2574 3.20871C12.9674 3.50746 12.6724 3.80121 12.3749 4.09371C11.9874 3.70996 11.5962 3.33121 11.2274 2.92871Z" fill="#4A5459"/>
<path d="M7.29979 3.23047C7.73854 3.60797 8.11603 4.04797 8.54853 4.43172C7.77478 4.51047 6.98104 4.45422 6.21729 4.31422L6.28354 4.24922C6.62104 3.90797 6.95604 3.56422 7.29979 3.23047V3.23047Z" fill="#4A5459"/>
<path d="M10.6698 3.23047C11.0423 3.54547 11.3736 3.90297 11.7161 4.24922L11.7836 4.31422C11.0198 4.47047 10.2323 4.47422 9.45605 4.45922L9.54105 4.37547C9.90605 3.98297 10.2936 3.61297 10.6698 3.23047V3.23047Z" fill="#4A5459"/>
<path d="M3.28369 3.66176C3.54494 3.54926 3.81119 3.44426 4.08494 3.36426C4.29494 3.56926 4.50494 3.77551 4.70369 3.99426L4.76869 4.09801C4.25619 4.02301 3.75994 3.86301 3.28369 3.66176V3.66176Z" fill="#4A5459"/>
<path d="M13.9162 3.36328C14.1875 3.44328 14.4487 3.55078 14.705 3.66703C14.2262 3.86328 13.73 4.04078 13.21 4.08828L13.2975 3.99328C13.4962 3.77703 13.705 3.56828 13.9162 3.36328V3.36328Z" fill="#4A5459"/>
<path d="M3.78613 5.62695C4.82488 5.85695 5.87738 6.0207 6.93738 6.1232C6.52488 6.5957 6.06988 7.0257 5.62488 7.46695C5.00613 6.85945 4.39613 6.24195 3.78613 5.62695Z" fill="#4A5459"/>
<path d="M11.061 6.12363C12.1198 6.02238 13.171 5.85613 14.211 5.62988C13.601 6.24488 12.9923 6.86113 12.3748 7.46738C11.9298 7.02613 11.4748 6.59488 11.061 6.12363V6.12363Z" fill="#4A5459"/>
<path d="M3.31104 5.96973C3.95229 6.59973 4.58604 7.23598 5.21854 7.87473C4.77854 8.29473 4.38854 8.76973 3.90479 9.13848C3.79729 9.02223 3.68979 8.90723 3.58229 8.79223C3.49979 7.84973 3.38354 6.91223 3.31104 5.96973V5.96973Z" fill="#4A5459"/>
<path d="M12.7812 7.87473C13.4137 7.23723 14.0475 6.59973 14.6888 5.96973C14.6213 6.91598 14.4937 7.85598 14.4225 8.80223C14.3025 8.92348 14.17 9.03098 14.0387 9.13973C13.6225 8.71473 13.1975 8.29973 12.7812 7.87473V7.87473Z" fill="#4A5459"/>
<path d="M7.73389 6.18066C8.57764 6.18816 9.42264 6.18816 10.2664 6.18066C9.86139 6.62691 9.42889 7.04441 9.00014 7.46691C8.57139 7.04441 8.13889 6.62691 7.73389 6.18066Z" fill="#4A5459"/>
<path d="M7.29 6.61133C7.7625 6.99133 8.15875 7.45383 8.59375 7.87508C8.15625 8.29383 7.76625 8.76508 7.28625 9.13758C6.87 8.71383 6.44625 8.29883 6.03125 7.87508C6.4475 7.45008 6.87125 7.03383 7.29 6.61133V6.61133Z" fill="#4A5459"/>
<path d="M10.645 6.65344L10.7275 6.64844C11.1625 7.03469 11.5538 7.46844 11.9688 7.87469C11.5312 8.29469 11.1388 8.76344 10.6613 9.13719C10.245 8.71344 9.82125 8.29844 9.40625 7.87469C9.82125 7.46969 10.2088 7.03469 10.645 6.65344V6.65344Z" fill="#4A5459"/>
<path d="M4.3623 9.59C4.7348 9.10875 5.20605 8.71875 5.6248 8.28125C6.0498 8.69875 6.46855 9.12125 6.8898 9.5425C6.50605 10.0112 6.04605 10.41 5.6248 10.8438C5.20105 10.4288 4.78605 10.005 4.3623 9.59Z" fill="#4A5459"/>
<path d="M8.00847 9.26375C8.34097 8.9375 8.66722 8.6075 8.99972 8.28125C9.42347 8.69625 9.83972 9.12125 10.2622 9.5375C9.88722 10.0138 9.41972 10.4075 8.99972 10.8438C8.59347 10.4288 8.15972 10.04 7.77597 9.605C7.74972 9.4525 7.93472 9.37375 8.00847 9.26375V9.26375Z" fill="#4A5459"/>
<path d="M11.1113 9.58625C11.4888 9.11125 11.9551 8.7175 12.3751 8.28125C12.8001 8.69875 13.2188 9.12125 13.6401 9.54125C13.2563 10.0113 12.7963 10.41 12.3751 10.8438C11.9501 10.4275 11.5338 10.0038 11.1113 9.58625Z" fill="#4A5459"/>
<path d="M3.89729 9.97852C4.38229 10.3523 4.77729 10.826 5.21854 11.2498C4.80354 11.6723 4.38354 12.0898 3.96354 12.5073C3.87104 11.7473 3.81729 10.9835 3.71729 10.2248C3.76229 10.1635 3.85229 10.0398 3.89729 9.97852V9.97852Z" fill="#4A5459"/>
<path d="M6.03125 11.2494C6.465 10.8281 6.8625 10.3669 7.3325 9.98438C7.75375 10.4056 8.17625 10.8244 8.59375 11.2494C8.1775 11.6744 7.75375 12.0919 7.33375 12.5144C6.86375 12.1306 6.465 11.6706 6.03125 11.2494Z" fill="#4A5459"/>
<path d="M10.6637 9.98633C11.1387 10.3638 11.5325 10.8301 11.9688 11.2501C11.5538 11.6551 11.1662 12.0888 10.7312 12.4713L10.6462 12.4763C10.2125 12.0901 9.82125 11.6563 9.40625 11.2501C9.8225 10.8251 10.2462 10.4088 10.6637 9.98633V9.98633Z" fill="#4A5459"/>
<path d="M14.0363 9.98633C14.1513 10.0801 14.3463 10.1788 14.2638 10.3651C14.185 11.0788 14.12 11.7926 14.0375 12.5063C13.615 12.0901 13.1962 11.6713 12.7812 11.2501C13.1962 10.8251 13.6225 10.4113 14.0363 9.98633V9.98633Z" fill="#4A5459"/>
<path d="M4.3623 12.9137C4.78355 12.4962 5.20105 12.0725 5.6248 11.6562C6.04855 12.0712 6.4648 12.495 6.8873 12.9125C6.6123 13.2825 6.2473 13.57 5.95105 13.9213L5.84855 13.9137C5.69605 13.8887 5.5648 13.9287 5.45355 14.0337C5.0773 13.6737 4.6848 13.325 4.3623 12.9137V12.9137Z" fill="#4A5459"/>
<path d="M7.73865 12.965C8.10865 12.4838 8.58115 12.095 8.9999 11.6562C9.40365 12.0712 9.8399 12.4563 10.2199 12.8938C10.1861 13.1613 9.85615 13.3213 9.6899 13.5312C9.2299 13.5175 8.76865 13.5175 8.30865 13.5312C8.11865 13.3425 7.92865 13.1538 7.73865 12.965V12.965Z" fill="#4A5459"/>
<path d="M11.3222 12.7013C11.6735 12.3538 12.0222 12.0038 12.3747 11.6562C12.796 12.09 13.2572 12.4888 13.6385 12.96C13.2747 13.3163 12.9272 13.6912 12.546 14.03C12.4335 13.9288 12.301 13.89 12.1485 13.915L12.0497 13.9225C11.7835 13.6137 11.4785 13.3438 11.2035 13.045C11.0485 12.9263 11.2447 12.7913 11.3222 12.7013V12.7013Z" fill="#4A5459"/>
<path d="M4.0625 13.4707C4.30625 13.702 4.54125 13.942 4.77625 14.1832C4.5325 14.3632 4.21 14.5145 4.18 14.8582C4.15125 14.3945 4.09 13.9332 4.0625 13.4707V13.4707Z" fill="#4A5459"/>
<path d="M13.2236 14.1835C13.4586 13.9422 13.6949 13.7022 13.9386 13.4697C13.9111 13.9347 13.8499 14.3972 13.8224 14.8622C13.7886 14.5185 13.4711 14.3622 13.2236 14.1835V14.1835Z" fill="#4A5459"/>
<path d="M6.77371 2.9283C7.12621 2.9008 7.49246 2.7858 7.83621 2.9208C8.21871 3.3158 8.60621 3.7083 8.99996 4.0933C9.39621 3.70705 9.78371 3.3133 10.1687 2.91705C10.5125 2.78955 10.8762 2.89955 11.2275 2.9283C11.5962 3.3308 11.9875 3.70955 12.375 4.0933C12.6725 3.8008 12.9675 3.50705 13.2575 3.2083C13.4775 3.2558 13.6987 3.30455 13.9162 3.3633C13.705 3.5683 13.4962 3.77705 13.2975 3.9933C12.83 4.2508 12.2362 4.38705 11.7162 4.24955C11.3737 3.9033 11.0425 3.5458 10.67 3.2308C10.2937 3.6133 9.90621 3.9833 9.54121 4.3758C9.23496 4.5358 8.87121 4.54455 8.54871 4.43205C8.11621 4.0483 7.73871 3.6083 7.29996 3.2308C6.95621 3.56455 6.62121 3.9083 6.28371 4.24955C5.76246 4.3883 5.17371 4.2458 4.70371 3.99455C4.50496 3.7758 4.29496 3.56955 4.08496 3.36455C4.30246 3.3058 4.52246 3.25455 4.74246 3.2083C5.03246 3.50705 5.32746 3.8008 5.62496 4.0933C6.01246 3.70955 6.40371 3.32955 6.77371 2.9283V2.9283Z" fill="#BAC8CC"/>
<path d="M7.30125 13.3975C7.7825 13.75 8.16625 14.2125 8.595 14.625C8.17875 15.0487 7.75375 15.4625 7.33875 15.8887C6.86125 15.5137 6.46875 15.0437 6.03125 14.625C6.44625 14.2075 6.85125 13.7787 7.30125 13.3975Z" fill="#2B2B2B"/>
<path d="M10.6637 13.3965C11.15 13.749 11.5412 14.2077 11.9688 14.6252C11.5538 15.0315 11.1625 15.4627 10.73 15.8502C10.5762 15.8715 10.5 15.694 10.39 15.6177C10.0638 15.284 9.7325 14.9577 9.40625 14.6252C9.82 14.2102 10.2237 13.784 10.6637 13.3965Z" fill="#2B2B2B"/>
<path d="M8.30859 13.5318C8.76859 13.518 9.22984 13.518 9.68984 13.5318C9.46234 13.763 9.23109 13.9918 8.99984 14.2193C8.76734 13.9918 8.53734 13.7618 8.30859 13.5318Z" fill="#2B2B2B"/>
<path d="M4.18018 14.8586C4.21018 14.5148 4.53268 14.3636 4.77643 14.1836C4.92518 14.3298 5.07268 14.4761 5.22018 14.6236C4.96768 14.8823 4.70768 15.1361 4.45643 15.3973C4.20393 15.3261 4.18268 15.0848 4.18018 14.8586V14.8586Z" fill="#2B2B2B"/>
<path d="M12.7798 14.6236C12.9273 14.4761 13.076 14.3298 13.2235 14.1836C13.471 14.3623 13.7885 14.5186 13.8223 14.8623C13.8235 15.0786 13.7435 15.2798 13.6298 15.4598C13.336 15.1911 13.0573 14.9086 12.7798 14.6236V14.6236Z" fill="#2B2B2B"/>
<path d="M4.97998 15.7397C5.15248 15.466 5.39373 15.251 5.62623 15.0322C5.99123 15.3935 6.35623 15.756 6.71998 16.1197C6.12248 16.0935 5.54623 15.9197 4.97998 15.7397Z" fill="#2B2B2B"/>
<path d="M7.76611 16.2725C8.16861 15.85 8.58611 15.4412 8.99986 15.0312C9.41361 15.4412 9.83111 15.85 10.2336 16.2725C9.41236 16.32 8.58736 16.32 7.76611 16.2725V16.2725Z" fill="#2B2B2B"/>
<path d="M11.2788 16.1225C11.6438 15.7575 12.0088 15.3938 12.3751 15.0312C12.6126 15.255 12.8401 15.4913 13.0563 15.7375C12.4751 15.9113 11.8901 16.0962 11.2788 16.1225Z" fill="#2B2B2B"/>
<path d="M5.45361 14.0335C5.56486 13.9285 5.69611 13.8885 5.84861 13.9135C5.95611 14.136 5.46236 14.306 5.45361 14.0335V14.0335Z" fill="#36393A"/>
<path d="M12.1489 13.9156C12.3014 13.8906 12.4339 13.9293 12.5464 14.0306C12.5439 14.3056 12.0476 14.1418 12.1489 13.9156Z" fill="#36393A"/>
</g>
<defs>
<clipPath id="clip0_1153_209">
<rect width="18" height="18" fill="white"/>
</clipPath>
</defs>
</svg>
