<svg width="12" height="12" viewBox="0 0 12 12" fill="none" xmlns="http://www.w3.org/2000/svg">
<path d="M5.99996 5.16699C6.2761 5.16699 6.49996 5.39085 6.49996 5.66699V9.00032C6.49996 9.27647 6.2761 9.50032 5.99996 9.50032C5.72382 9.50032 5.49996 9.27647 5.49996 9.00032V5.66699C5.49996 5.39085 5.72382 5.16699 5.99996 5.16699Z" fill="#4B4B4B"/>
<path d="M5.99996 4.00033C6.36815 4.00033 6.66663 3.70185 6.66663 3.33366C6.66663 2.96547 6.36815 2.66699 5.99996 2.66699C5.63177 2.66699 5.33329 2.96547 5.33329 3.33366C5.33329 3.70185 5.63177 4.00033 5.99996 4.00033Z" fill="#4B4B4B"/>
<path fill-rule="evenodd" clip-rule="evenodd" d="M0.166626 6.00033C0.166626 2.77866 2.7783 0.166992 5.99996 0.166992C9.22162 0.166992 11.8333 2.77866 11.8333 6.00033C11.8333 9.22199 9.22162 11.8337 5.99996 11.8337C2.7783 11.8337 0.166626 9.22199 0.166626 6.00033ZM5.99996 1.16699C3.33058 1.16699 1.16663 3.33095 1.16663 6.00033C1.16663 8.6697 3.33058 10.8337 5.99996 10.8337C8.66934 10.8337 10.8333 8.6697 10.8333 6.00033C10.8333 3.33095 8.66934 1.16699 5.99996 1.16699Z" fill="#4B4B4B"/>
</svg>