<svg width="18" height="19" viewBox="0 0 18 19" fill="none" xmlns="http://www.w3.org/2000/svg">
<path d="M3.54543 5.1629C3.33021 5.10612 3.15133 4.95667 3.05716 4.75499C2.963 4.5533 2.96329 4.32021 3.05795 4.11875L4.7187 0.584365C4.84246 0.320979 5.10742 0.152962 5.39843 0.153321C5.68944 0.153681 5.95398 0.322354 6.07709 0.586045L6.80971 2.15528C6.83591 2.14499 6.86295 2.13606 6.89078 2.1286C11.2381 0.963733 15.7067 3.54364 16.8715 7.89099C18.0364 12.2383 15.4565 16.7069 11.1091 17.8717C6.7618 19.0366 2.29326 16.4567 1.12839 12.1094C0.757969 10.7269 0.766303 9.33003 1.09074 8.0313C1.19112 7.62943 1.59828 7.38504 2.00015 7.48543C2.40201 7.58581 2.6464 7.99297 2.54602 8.39484C2.28172 9.45283 2.27444 10.5909 2.57728 11.7211C3.52774 15.2683 7.17377 17.3733 10.7209 16.4229C14.2681 15.4724 16.3731 11.8264 15.4226 8.27922C14.4877 4.79007 10.9447 2.69626 7.45307 3.53331L8.19226 5.11661C8.31537 5.3803 8.27483 5.69141 8.08825 5.91474C7.90167 6.13807 7.60274 6.23331 7.32136 6.15907L3.54543 5.1629Z" fill="#4B4B4B"/>
</svg>
