<svg width="24" height="24" viewBox="0 0 24 24" fill="none" xmlns="http://www.w3.org/2000/svg">
<path d="M6.54567 8.1629C6.33045 8.10612 6.15157 7.95667 6.05741 7.75499C5.96325 7.5533 5.96354 7.32021 6.0582 7.11875L7.71895 3.58436C7.84271 3.32098 8.10766 3.15296 8.39867 3.15332C8.68969 3.15368 8.95422 3.32235 9.07733 3.58604L9.80996 5.15528C9.83615 5.14499 9.8632 5.13606 9.89103 5.1286C14.2384 3.96373 18.7069 6.54364 19.8718 10.891C21.0366 15.2383 18.4567 19.7069 14.1094 20.8717C9.76204 22.0366 5.2935 19.4567 4.12864 15.1094C3.75821 13.7269 3.76655 12.33 4.09098 11.0313C4.19137 10.6294 4.59853 10.385 5.00039 10.4854C5.40225 10.5858 5.64665 10.993 5.54626 11.3948C5.28197 12.4528 5.27468 13.5909 5.57753 14.7211C6.52798 18.2683 10.174 20.3733 13.7212 19.4229C17.2683 18.4724 19.3733 14.8264 18.4229 11.2792C17.488 7.79007 13.9449 5.69626 10.4533 6.53331L11.1925 8.11661C11.3156 8.3803 11.2751 8.69141 11.0885 8.91474C10.9019 9.13807 10.603 9.23331 10.3216 9.15907L6.54567 8.1629Z" fill="white"/>
</svg>
