<svg width="16" height="18" viewBox="0 0 16 18" fill="none" xmlns="http://www.w3.org/2000/svg">
<path fill-rule="evenodd" clip-rule="evenodd" d="M9.49562 2.03791C8.66132 1.23736 7.34409 1.23736 6.50979 2.03791L2.07612 6.29227C1.96749 6.39651 1.89442 6.53229 1.86727 6.68038C1.33622 9.57632 1.29702 12.541 1.75132 15.45L1.85915 16.1405H4.71159V10.188C4.71159 9.79103 5.03338 9.46923 5.43034 9.46923H10.5751C10.972 9.46923 11.2938 9.79103 11.2938 10.188V16.1405H14.1463L14.2541 15.45C14.7084 12.5411 14.6692 9.57632 14.1381 6.68038C14.111 6.53229 14.0379 6.39651 13.9293 6.29227L9.49562 2.03791ZM5.51452 1.00069C6.90501 -0.333564 9.1004 -0.333564 10.4909 1.00069L14.9246 5.25505C15.2509 5.56823 15.4705 5.97618 15.5521 6.4211C16.1122 9.47591 16.1536 12.6033 15.6744 15.6718L15.5011 16.7811C15.4295 17.2398 15.0344 17.578 14.5701 17.578H10.5751C10.1781 17.578 9.85632 17.2562 9.85632 16.8593V10.9067H6.14909V16.8593C6.14909 17.2562 5.82729 17.578 5.43034 17.578H1.43531C0.971008 17.578 0.575902 17.2398 0.504261 16.7811L0.331031 15.6718C-0.148182 12.6033 -0.106833 9.47591 0.453342 6.4211C0.534928 5.97618 0.754466 5.56823 1.08085 5.25505L5.51452 1.00069Z" fill="white"/>
</svg>
