<svg width="16" height="18" viewBox="0 0 16 18" fill="none" xmlns="http://www.w3.org/2000/svg">
<path fill-rule="evenodd" clip-rule="evenodd" d="M3.6129 4.50555C3.6129 2.0172 5.57707 0 8 0C10.4229 0 12.3871 2.0172 12.3871 4.50555C12.3871 6.9939 10.4229 9.0111 8 9.0111C5.57707 9.0111 3.6129 6.9939 3.6129 4.50555ZM8 1.59019C6.43222 1.59019 5.16129 2.89544 5.16129 4.50555C5.16129 6.11566 6.43222 7.42091 8 7.42091C9.56778 7.42091 10.8387 6.11566 10.8387 4.50555C10.8387 2.89544 9.56778 1.59019 8 1.59019Z" fill="white"/>
<path fill-rule="evenodd" clip-rule="evenodd" d="M3.87097 12.1915C2.58824 12.1915 1.54839 13.2594 1.54839 14.5768V15.8365C1.54839 15.8557 1.56192 15.8721 1.58036 15.8751C5.83197 16.588 10.168 16.588 14.4196 15.8751C14.4381 15.8721 14.4516 15.8557 14.4516 15.8365V14.5768C14.4516 13.2594 13.4118 12.1915 12.129 12.1915H11.7772C11.75 12.1915 11.7229 12.1959 11.6971 12.2046L10.8036 12.5042C8.98187 13.1151 7.01813 13.1151 5.19637 12.5042L4.30294 12.2046C4.27707 12.1959 4.25004 12.1915 4.22283 12.1915H3.87097ZM0 14.5768C0 12.3812 1.73309 10.6013 3.87097 10.6013H4.22283C4.41328 10.6013 4.60252 10.6322 4.78356 10.6929L5.67699 10.9925C7.18645 11.4987 8.81355 11.4987 10.323 10.9925L11.2164 10.6929C11.3975 10.6322 11.5867 10.6013 11.7772 10.6013H12.129C14.2669 10.6013 16 12.3812 16 14.5768V15.8365C16 16.635 15.4365 17.3159 14.6691 17.4446C10.2523 18.1851 5.74771 18.1851 1.33086 17.4446C0.563493 17.3159 0 16.635 0 15.8365V14.5768Z" fill="white"/>
</svg>
