<svg width="24" height="19" viewBox="0 0 24 19" fill="none" xmlns="http://www.w3.org/2000/svg">
<path d="M0 6.96447C0 2.99636 3.80525 0 8.20161 0C11.7002 0 14.8021 1.88375 15.9418 4.64933C15.993 4.77337 15.904 4.90792 15.7703 4.91898C15.398 4.94978 15.0282 5.00265 14.6638 5.07662C14.5707 5.09551 14.4769 5.04807 14.4353 4.9627C13.4716 2.98442 11.1046 1.5 8.20161 1.5C4.36715 1.5 1.5 4.06827 1.5 6.96447C1.5 8.52913 2.31392 9.97397 3.6825 10.9955C3.87216 11.1371 3.98387 11.3599 3.98387 11.5965V12.5373L5.53151 12.107C5.6663 12.0696 5.80888 12.0705 5.94314 12.1098C6.55385 12.2887 7.20668 12.3974 7.88752 12.423C7.99556 12.4271 8.08258 12.514 8.08726 12.6221C8.10581 13.05 8.16311 13.4633 8.25538 13.8607C8.26344 13.8954 8.23728 13.9288 8.20161 13.9289C7.34258 13.9289 6.51262 13.8169 5.73177 13.6082L3.43475 14.2468C3.20891 14.3096 2.96671 14.2632 2.78009 14.1213C2.59346 13.9795 2.48387 13.7586 2.48387 13.5242V11.961C0.974015 10.7148 0 8.95157 0 6.96447Z" fill="white"/>
<path d="M6.60486 5.00806C6.60486 5.59597 6.12826 6.07257 5.54035 6.07257C4.95243 6.07257 4.47583 5.59597 4.47583 5.00806C4.47583 4.42014 4.95243 3.94354 5.54035 3.94354C6.12826 3.94354 6.60486 4.42014 6.60486 5.00806Z" fill="white"/>
<path d="M10.8629 6.07257C11.4508 6.07257 11.9274 5.59597 11.9274 5.00806C11.9274 4.42014 11.4508 3.94354 10.8629 3.94354C10.275 3.94354 9.7984 4.42014 9.7984 5.00806C9.7984 5.59597 10.275 6.07257 10.8629 6.07257Z" fill="white"/>
<path d="M14.2959 11.9274C14.8104 11.9274 15.2274 11.5104 15.2274 10.996C15.2274 10.4815 14.8104 10.0645 14.2959 10.0645C13.7815 10.0645 13.3645 10.4815 13.3645 10.996C13.3645 11.5104 13.7815 11.9274 14.2959 11.9274Z" fill="white"/>
<path d="M19.7516 10.996C19.7516 11.5104 19.3346 11.9274 18.8202 11.9274C18.3057 11.9274 17.8887 11.5104 17.8887 10.996C17.8887 10.4815 18.3057 10.0645 18.8202 10.0645C19.3346 10.0645 19.7516 10.4815 19.7516 10.996Z" fill="white"/>
<path fill-rule="evenodd" clip-rule="evenodd" d="M16.5356 6.60853C20.246 6.60853 23.4952 9.14117 23.4952 12.5373C23.4952 14.2162 22.6866 15.4819 21.4301 16.5381V17.7822C21.4301 18.0166 21.3205 18.2376 21.1339 18.3794C20.9472 18.5212 20.705 18.5676 20.4792 18.5048L18.5977 17.9818C17.9461 18.1529 17.2549 18.2445 16.5403 18.2445C12.8298 18.2445 9.58063 15.7119 9.58063 12.3158C9.58063 8.91972 12.8251 6.60853 16.5356 6.60853ZM22 12.3158C22 9.99164 19.6889 7.88708 16.5403 7.88708C13.3917 7.88708 11.0806 9.99164 11.0806 12.3158C11.0806 14.64 13.3917 16.7445 16.5403 16.7445C17.1905 16.7445 17.812 16.6521 18.3872 16.4837C18.5215 16.4443 18.6641 16.4434 18.7989 16.4808L19.9301 16.7953V16.1759C19.9301 15.9392 20.0418 15.7164 20.2315 15.5748C21.346 14.7429 22 13.5737 22 12.3158Z" fill="white"/>
</svg>
