<svg width="17" height="16" viewBox="0 0 17 16" fill="none" xmlns="http://www.w3.org/2000/svg">
<path fill-rule="evenodd" clip-rule="evenodd" d="M8.38542 1.4375C4.96952 1.4375 2.39583 3.79002 2.39583 6.46875V7.67741C2.47474 7.6703 2.55466 7.66667 2.63542 7.66667H5.51042C5.90737 7.66667 6.22917 7.98846 6.22917 8.38542V15.0938C6.22917 15.4907 5.90737 15.8125 5.51042 15.8125H2.63542C1.17992 15.8125 0 14.6326 0 13.1771V10.3021C0 9.4837 0.37303 8.75244 0.958333 8.26906V6.46875C0.958333 2.7962 4.39149 0 8.38542 0C12.3793 0 15.8125 2.7962 15.8125 6.46875V8.26906C16.3978 8.75244 16.7708 9.4837 16.7708 10.3021V13.1771C16.7708 14.6326 15.5909 15.8125 14.1354 15.8125H11.2604C10.8635 15.8125 10.5417 15.4907 10.5417 15.0938V8.38542C10.5417 7.98846 10.8635 7.66667 11.2604 7.66667H14.1354C14.2162 7.66667 14.2961 7.6703 14.375 7.67741V6.46875C14.375 3.79002 11.8013 1.4375 8.38542 1.4375ZM2.63542 9.10417C1.97383 9.10417 1.4375 9.64049 1.4375 10.3021V13.1771C1.4375 13.8387 1.97383 14.375 2.63542 14.375H4.79167V9.10417H2.63542ZM15.3333 10.3021C15.3333 9.64049 14.797 9.10417 14.1354 9.10417H11.9792V14.375H14.1354C14.797 14.375 15.3333 13.8387 15.3333 13.1771V10.3021Z" fill="white"/>
</svg>
