<svg width="19" height="19" viewBox="0 0 19 19" fill="none" xmlns="http://www.w3.org/2000/svg">
<path d="M18.2083 17.4163H17.4167V7.12467C17.4167 6.91471 17.3333 6.71335 17.1848 6.56488C17.0363 6.41642 16.835 6.33301 16.625 6.33301H13.4583C13.2484 6.33301 13.047 6.41642 12.8985 6.56488C12.7501 6.71335 12.6667 6.91471 12.6667 7.12467V17.4163H11.875V10.2913C11.875 10.0814 11.7916 9.88001 11.6431 9.73155C11.4947 9.58308 11.2933 9.49967 11.0833 9.49967H7.91667C7.7067 9.49967 7.50534 9.58308 7.35687 9.73155C7.20841 9.88001 7.125 10.0814 7.125 10.2913V17.4163H6.33333V12.6663C6.33333 12.4564 6.24993 12.255 6.10146 12.1065C5.95299 11.9581 5.75163 11.8747 5.54167 11.8747H2.375C2.16504 11.8747 1.96367 11.9581 1.81521 12.1065C1.66674 12.255 1.58333 12.4564 1.58333 12.6663V17.4163H0.791667C0.581704 17.4163 0.38034 17.4997 0.231874 17.6482C0.0834075 17.7967 0 17.998 0 18.208C0 18.418 0.0834075 18.6193 0.231874 18.7678C0.38034 18.9163 0.581704 18.9997 0.791667 18.9997H18.2083C18.4183 18.9997 18.6197 18.9163 18.7681 18.7678C18.9166 18.6193 19 18.418 19 18.208C19 17.998 18.9166 17.7967 18.7681 17.6482C18.6197 17.4997 18.4183 17.4163 18.2083 17.4163ZM3.16667 17.4163V13.458H4.75V17.4163H3.16667ZM8.70833 17.4163V11.083H10.2917V17.4163H8.70833ZM14.25 17.4163V7.91634H15.8333V17.4163H14.25Z" fill="white"/>
<path d="M3.16667 8.70833C7.92348 8.70833 12.1431 5.06342 14.25 2.8766V3.95833C14.25 4.1683 14.3334 4.36966 14.4819 4.51813C14.6303 4.66659 14.8317 4.75 15.0417 4.75C15.2516 4.75 15.453 4.66659 15.6015 4.51813C15.7499 4.36966 15.8333 4.1683 15.8333 3.95833V0.791667C15.8287 0.583154 15.7438 0.384462 15.5963 0.236985C15.4489 0.0895081 15.2502 0.00461806 15.0417 0L11.875 0C11.665 0 11.4637 0.0834075 11.3152 0.231874C11.1667 0.38034 11.0833 0.581704 11.0833 0.791667C11.0833 1.00163 11.1667 1.20299 11.3152 1.35146C11.4637 1.49993 11.665 1.58333 11.875 1.58333H13.2877C11.4165 3.55625 7.44499 7.125 3.16667 7.125C2.9567 7.125 2.75534 7.20841 2.60687 7.35687C2.45841 7.50534 2.375 7.7067 2.375 7.91667C2.375 8.12663 2.45841 8.32799 2.60687 8.47646C2.75534 8.62493 2.9567 8.70833 3.16667 8.70833Z" fill="white"/>
</svg>
